ISO-10303-21;
HEADER;
/* Generated by software containing ST-Developer
 * from STEP Tools, Inc. (www.steptools.com) 
 */

FILE_DESCRIPTION(
/* description */ (''),
/* implementation_level */ '2;1');

FILE_NAME(
/* name */ 'Bus_copper_bottom.stp',
/* time_stamp */ '2025-12-18T13:10:42+03:00',
/* author */ ('EV-TECH'),
/* organization */ (''),
/* preprocessor_version */ 'ST-DEVELOPER v20.1',
/* originating_system */ 'Autodesk Inventor 2026',
/* authorisation */ '');

FILE_SCHEMA (('AUTOMOTIVE_DESIGN { 1 0 10303 214 3 1 1 }'));
ENDSEC;

DATA;
#10=MECHANICAL_DESIGN_GEOMETRIC_PRESENTATION_REPRESENTATION('',(#13),#689);
#11=SHAPE_REPRESENTATION_RELATIONSHIP('SRR','None',#696,#12);
#12=ADVANCED_BREP_SHAPE_REPRESENTATION('',(#14),#688);
#13=STYLED_ITEM('',(#705),#14);
#14=MANIFOLD_SOLID_BREP('\X2\04220432043504400434043E0435\X0\ \X2\04420435043B043E\X0\1',
#420);
#15=PLANE('',#446);
#16=PLANE('',#447);
#17=PLANE('',#448);
#18=PLANE('',#449);
#19=PLANE('',#450);
#20=PLANE('',#451);
#21=PLANE('',#452);
#22=PLANE('',#453);
#23=PLANE('',#454);
#24=PLANE('',#455);
#25=PLANE('',#456);
#26=PLANE('',#457);
#27=PLANE('',#458);
#28=PLANE('',#459);
#29=PLANE('',#460);
#30=PLANE('',#461);
#31=PLANE('',#462);
#32=PLANE('',#463);
#33=PLANE('',#464);
#34=PLANE('',#465);
#35=FACE_OUTER_BOUND('',#56,.T.);
#36=FACE_OUTER_BOUND('',#57,.T.);
#37=FACE_OUTER_BOUND('',#58,.T.);
#38=FACE_OUTER_BOUND('',#59,.T.);
#39=FACE_OUTER_BOUND('',#60,.T.);
#40=FACE_OUTER_BOUND('',#61,.T.);
#41=FACE_OUTER_BOUND('',#62,.T.);
#42=FACE_OUTER_BOUND('',#63,.T.);
#43=FACE_OUTER_BOUND('',#64,.T.);
#44=FACE_OUTER_BOUND('',#65,.T.);
#45=FACE_OUTER_BOUND('',#66,.T.);
#46=FACE_OUTER_BOUND('',#67,.T.);
#47=FACE_OUTER_BOUND('',#68,.T.);
#48=FACE_OUTER_BOUND('',#69,.T.);
#49=FACE_OUTER_BOUND('',#70,.T.);
#50=FACE_OUTER_BOUND('',#71,.T.);
#51=FACE_OUTER_BOUND('',#72,.T.);
#52=FACE_OUTER_BOUND('',#73,.T.);
#53=FACE_OUTER_BOUND('',#74,.T.);
#54=FACE_OUTER_BOUND('',#75,.T.);
#55=FACE_OUTER_BOUND('',#76,.T.);
#56=EDGE_LOOP('',(#284,#285,#286,#287));
#57=EDGE_LOOP('',(#288,#289,#290,#291,#292,#293,#294,#295,#296,#297,#298,
#299,#300,#301,#302,#303,#304,#305,#306));
#58=EDGE_LOOP('',(#307,#308,#309,#310));
#59=EDGE_LOOP('',(#311,#312,#313,#314));
#60=EDGE_LOOP('',(#315,#316,#317,#318));
#61=EDGE_LOOP('',(#319,#320,#321,#322));
#62=EDGE_LOOP('',(#323,#324,#325,#326));
#63=EDGE_LOOP('',(#327,#328,#329,#330));
#64=EDGE_LOOP('',(#331,#332,#333,#334));
#65=EDGE_LOOP('',(#335,#336,#337,#338));
#66=EDGE_LOOP('',(#339,#340,#341,#342));
#67=EDGE_LOOP('',(#343,#344,#345,#346));
#68=EDGE_LOOP('',(#347,#348,#349,#350));
#69=EDGE_LOOP('',(#351,#352,#353,#354));
#70=EDGE_LOOP('',(#355,#356,#357,#358));
#71=EDGE_LOOP('',(#359,#360,#361,#362));
#72=EDGE_LOOP('',(#363,#364,#365,#366));
#73=EDGE_LOOP('',(#367,#368,#369,#370));
#74=EDGE_LOOP('',(#371,#372,#373,#374,#375,#376,#377,#378,#379,#380,#381,
#382,#383,#384,#385,#386,#387,#388,#389));
#75=EDGE_LOOP('',(#390,#391,#392,#393));
#76=EDGE_LOOP('',(#394,#395,#396,#397));
#77=LINE('',#575,#132);
#78=LINE('',#578,#133);
#79=LINE('',#581,#134);
#80=LINE('',#583,#135);
#81=LINE('',#585,#136);
#82=LINE('',#587,#137);
#83=LINE('',#589,#138);
#84=LINE('',#591,#139);
#85=LINE('',#593,#140);
#86=LINE('',#595,#141);
#87=LINE('',#597,#142);
#88=LINE('',#599,#143);
#89=LINE('',#601,#144);
#90=LINE('',#603,#145);
#91=LINE('',#605,#146);
#92=LINE('',#607,#147);
#93=LINE('',#609,#148);
#94=LINE('',#611,#149);
#95=LINE('',#613,#150);
#96=LINE('',#614,#151);
#97=LINE('',#617,#152);
#98=LINE('',#618,#153);
#99=LINE('',#621,#154);
#100=LINE('',#623,#155);
#101=LINE('',#624,#156);
#102=LINE('',#627,#157);
#103=LINE('',#629,#158);
#104=LINE('',#630,#159);
#105=LINE('',#633,#160);
#106=LINE('',#635,#161);
#107=LINE('',#636,#162);
#108=LINE('',#639,#163);
#109=LINE('',#641,#164);
#110=LINE('',#642,#165);
#111=LINE('',#645,#166);
#112=LINE('',#646,#167);
#113=LINE('',#648,#168);
#114=LINE('',#651,#169);
#115=LINE('',#652,#170);
#116=LINE('',#654,#171);
#117=LINE('',#657,#172);
#118=LINE('',#658,#173);
#119=LINE('',#661,#174);
#120=LINE('',#662,#175);
#121=LINE('',#664,#176);
#122=LINE('',#667,#177);
#123=LINE('',#668,#178);
#124=LINE('',#671,#179);
#125=LINE('',#672,#180);
#126=LINE('',#674,#181);
#127=LINE('',#677,#182);
#128=LINE('',#678,#183);
#129=LINE('',#681,#184);
#130=LINE('',#682,#185);
#131=LINE('',#684,#186);
#132=VECTOR('',#472,10.);
#133=VECTOR('',#475,10.);
#134=VECTOR('',#478,10.);
#135=VECTOR('',#479,10.);
#136=VECTOR('',#480,10.);
#137=VECTOR('',#481,10.);
#138=VECTOR('',#482,10.);
#139=VECTOR('',#483,10.);
#140=VECTOR('',#484,10.);
#141=VECTOR('',#485,10.);
#142=VECTOR('',#486,10.);
#143=VECTOR('',#487,10.);
#144=VECTOR('',#488,10.);
#145=VECTOR('',#489,10.);
#146=VECTOR('',#490,10.);
#147=VECTOR('',#491,10.);
#148=VECTOR('',#492,10.);
#149=VECTOR('',#493,10.);
#150=VECTOR('',#494,10.);
#151=VECTOR('',#495,10.);
#152=VECTOR('',#498,10.);
#153=VECTOR('',#499,10.);
#154=VECTOR('',#502,10.);
#155=VECTOR('',#503,10.);
#156=VECTOR('',#504,10.);
#157=VECTOR('',#507,10.);
#158=VECTOR('',#508,10.);
#159=VECTOR('',#509,10.);
#160=VECTOR('',#512,10.);
#161=VECTOR('',#513,10.);
#162=VECTOR('',#514,10.);
#163=VECTOR('',#517,10.);
#164=VECTOR('',#518,10.);
#165=VECTOR('',#519,10.);
#166=VECTOR('',#522,10.);
#167=VECTOR('',#523,10.);
#168=VECTOR('',#526,10.);
#169=VECTOR('',#529,10.);
#170=VECTOR('',#530,10.);
#171=VECTOR('',#533,10.);
#172=VECTOR('',#536,10.);
#173=VECTOR('',#537,10.);
#174=VECTOR('',#540,10.);
#175=VECTOR('',#541,10.);
#176=VECTOR('',#544,10.);
#177=VECTOR('',#547,10.);
#178=VECTOR('',#548,10.);
#179=VECTOR('',#551,10.);
#180=VECTOR('',#552,10.);
#181=VECTOR('',#555,10.);
#182=VECTOR('',#558,10.);
#183=VECTOR('',#559,10.);
#184=VECTOR('',#562,10.);
#185=VECTOR('',#563,10.);
#186=VECTOR('',#566,10.);
#187=CIRCLE('',#444,2.);
#188=CIRCLE('',#445,2.);
#189=VERTEX_POINT('',#571);
#190=VERTEX_POINT('',#572);
#191=VERTEX_POINT('',#574);
#192=VERTEX_POINT('',#576);
#193=VERTEX_POINT('',#580);
#194=VERTEX_POINT('',#582);
#195=VERTEX_POINT('',#584);
#196=VERTEX_POINT('',#586);
#197=VERTEX_POINT('',#588);
#198=VERTEX_POINT('',#590);
#199=VERTEX_POINT('',#592);
#200=VERTEX_POINT('',#594);
#201=VERTEX_POINT('',#596);
#202=VERTEX_POINT('',#598);
#203=VERTEX_POINT('',#600);
#204=VERTEX_POINT('',#602);
#205=VERTEX_POINT('',#604);
#206=VERTEX_POINT('',#606);
#207=VERTEX_POINT('',#608);
#208=VERTEX_POINT('',#610);
#209=VERTEX_POINT('',#612);
#210=VERTEX_POINT('',#616);
#211=VERTEX_POINT('',#620);
#212=VERTEX_POINT('',#622);
#213=VERTEX_POINT('',#626);
#214=VERTEX_POINT('',#628);
#215=VERTEX_POINT('',#632);
#216=VERTEX_POINT('',#634);
#217=VERTEX_POINT('',#638);
#218=VERTEX_POINT('',#640);
#219=VERTEX_POINT('',#644);
#220=VERTEX_POINT('',#650);
#221=VERTEX_POINT('',#656);
#222=VERTEX_POINT('',#660);
#223=VERTEX_POINT('',#666);
#224=VERTEX_POINT('',#670);
#225=VERTEX_POINT('',#676);
#226=VERTEX_POINT('',#680);
#227=EDGE_CURVE('',#189,#190,#187,.T.);
#228=EDGE_CURVE('',#190,#191,#77,.T.);
#229=EDGE_CURVE('',#191,#192,#188,.T.);
#230=EDGE_CURVE('',#192,#189,#78,.T.);
#231=EDGE_CURVE('',#193,#189,#79,.T.);
#232=EDGE_CURVE('',#193,#194,#80,.T.);
#233=EDGE_CURVE('',#194,#195,#81,.T.);
#234=EDGE_CURVE('',#195,#196,#82,.T.);
#235=EDGE_CURVE('',#197,#196,#83,.T.);
#236=EDGE_CURVE('',#197,#198,#84,.T.);
#237=EDGE_CURVE('',#198,#199,#85,.T.);
#238=EDGE_CURVE('',#199,#200,#86,.T.);
#239=EDGE_CURVE('',#201,#200,#87,.T.);
#240=EDGE_CURVE('',#201,#202,#88,.T.);
#241=EDGE_CURVE('',#202,#203,#89,.T.);
#242=EDGE_CURVE('',#203,#204,#90,.T.);
#243=EDGE_CURVE('',#205,#204,#91,.T.);
#244=EDGE_CURVE('',#205,#206,#92,.T.);
#245=EDGE_CURVE('',#206,#207,#93,.T.);
#246=EDGE_CURVE('',#207,#208,#94,.T.);
#247=EDGE_CURVE('',#208,#209,#95,.T.);
#248=EDGE_CURVE('',#190,#209,#96,.T.);
#249=EDGE_CURVE('',#210,#192,#97,.T.);
#250=EDGE_CURVE('',#210,#193,#98,.T.);
#251=EDGE_CURVE('',#207,#211,#99,.T.);
#252=EDGE_CURVE('',#212,#211,#100,.T.);
#253=EDGE_CURVE('',#208,#212,#101,.T.);
#254=EDGE_CURVE('',#213,#196,#102,.T.);
#255=EDGE_CURVE('',#195,#214,#103,.T.);
#256=EDGE_CURVE('',#213,#214,#104,.T.);
#257=EDGE_CURVE('',#203,#215,#105,.T.);
#258=EDGE_CURVE('',#216,#215,#106,.T.);
#259=EDGE_CURVE('',#216,#204,#107,.T.);
#260=EDGE_CURVE('',#217,#200,#108,.T.);
#261=EDGE_CURVE('',#199,#218,#109,.T.);
#262=EDGE_CURVE('',#217,#218,#110,.T.);
#263=EDGE_CURVE('',#212,#219,#111,.T.);
#264=EDGE_CURVE('',#209,#219,#112,.T.);
#265=EDGE_CURVE('',#219,#191,#113,.T.);
#266=EDGE_CURVE('',#194,#220,#114,.T.);
#267=EDGE_CURVE('',#220,#214,#115,.T.);
#268=EDGE_CURVE('',#220,#210,#116,.T.);
#269=EDGE_CURVE('',#221,#205,#117,.T.);
#270=EDGE_CURVE('',#221,#216,#118,.T.);
#271=EDGE_CURVE('',#206,#222,#119,.T.);
#272=EDGE_CURVE('',#222,#211,#120,.T.);
#273=EDGE_CURVE('',#222,#221,#121,.T.);
#274=EDGE_CURVE('',#223,#197,#122,.T.);
#275=EDGE_CURVE('',#223,#213,#123,.T.);
#276=EDGE_CURVE('',#198,#224,#124,.T.);
#277=EDGE_CURVE('',#224,#218,#125,.T.);
#278=EDGE_CURVE('',#224,#223,#126,.T.);
#279=EDGE_CURVE('',#225,#201,#127,.T.);
#280=EDGE_CURVE('',#225,#217,#128,.T.);
#281=EDGE_CURVE('',#226,#215,#129,.T.);
#282=EDGE_CURVE('',#226,#225,#130,.T.);
#283=EDGE_CURVE('',#202,#226,#131,.T.);
#284=ORIENTED_EDGE('',*,*,#227,.T.);
#285=ORIENTED_EDGE('',*,*,#228,.T.);
#286=ORIENTED_EDGE('',*,*,#229,.T.);
#287=ORIENTED_EDGE('',*,*,#230,.T.);
#288=ORIENTED_EDGE('',*,*,#227,.F.);
#289=ORIENTED_EDGE('',*,*,#231,.F.);
#290=ORIENTED_EDGE('',*,*,#232,.T.);
#291=ORIENTED_EDGE('',*,*,#233,.T.);
#292=ORIENTED_EDGE('',*,*,#234,.T.);
#293=ORIENTED_EDGE('',*,*,#235,.F.);
#294=ORIENTED_EDGE('',*,*,#236,.T.);
#295=ORIENTED_EDGE('',*,*,#237,.T.);
#296=ORIENTED_EDGE('',*,*,#238,.T.);
#297=ORIENTED_EDGE('',*,*,#239,.F.);
#298=ORIENTED_EDGE('',*,*,#240,.T.);
#299=ORIENTED_EDGE('',*,*,#241,.T.);
#300=ORIENTED_EDGE('',*,*,#242,.T.);
#301=ORIENTED_EDGE('',*,*,#243,.F.);
#302=ORIENTED_EDGE('',*,*,#244,.T.);
#303=ORIENTED_EDGE('',*,*,#245,.T.);
#304=ORIENTED_EDGE('',*,*,#246,.T.);
#305=ORIENTED_EDGE('',*,*,#247,.T.);
#306=ORIENTED_EDGE('',*,*,#248,.F.);
#307=ORIENTED_EDGE('',*,*,#230,.F.);
#308=ORIENTED_EDGE('',*,*,#249,.F.);
#309=ORIENTED_EDGE('',*,*,#250,.T.);
#310=ORIENTED_EDGE('',*,*,#231,.T.);
#311=ORIENTED_EDGE('',*,*,#251,.T.);
#312=ORIENTED_EDGE('',*,*,#252,.F.);
#313=ORIENTED_EDGE('',*,*,#253,.F.);
#314=ORIENTED_EDGE('',*,*,#246,.F.);
#315=ORIENTED_EDGE('',*,*,#254,.T.);
#316=ORIENTED_EDGE('',*,*,#234,.F.);
#317=ORIENTED_EDGE('',*,*,#255,.T.);
#318=ORIENTED_EDGE('',*,*,#256,.F.);
#319=ORIENTED_EDGE('',*,*,#257,.T.);
#320=ORIENTED_EDGE('',*,*,#258,.F.);
#321=ORIENTED_EDGE('',*,*,#259,.T.);
#322=ORIENTED_EDGE('',*,*,#242,.F.);
#323=ORIENTED_EDGE('',*,*,#260,.T.);
#324=ORIENTED_EDGE('',*,*,#238,.F.);
#325=ORIENTED_EDGE('',*,*,#261,.T.);
#326=ORIENTED_EDGE('',*,*,#262,.F.);
#327=ORIENTED_EDGE('',*,*,#253,.T.);
#328=ORIENTED_EDGE('',*,*,#263,.T.);
#329=ORIENTED_EDGE('',*,*,#264,.F.);
#330=ORIENTED_EDGE('',*,*,#247,.F.);
#331=ORIENTED_EDGE('',*,*,#228,.F.);
#332=ORIENTED_EDGE('',*,*,#248,.T.);
#333=ORIENTED_EDGE('',*,*,#264,.T.);
#334=ORIENTED_EDGE('',*,*,#265,.T.);
#335=ORIENTED_EDGE('',*,*,#266,.T.);
#336=ORIENTED_EDGE('',*,*,#267,.T.);
#337=ORIENTED_EDGE('',*,*,#255,.F.);
#338=ORIENTED_EDGE('',*,*,#233,.F.);
#339=ORIENTED_EDGE('',*,*,#232,.F.);
#340=ORIENTED_EDGE('',*,*,#250,.F.);
#341=ORIENTED_EDGE('',*,*,#268,.F.);
#342=ORIENTED_EDGE('',*,*,#266,.F.);
#343=ORIENTED_EDGE('',*,*,#269,.T.);
#344=ORIENTED_EDGE('',*,*,#243,.T.);
#345=ORIENTED_EDGE('',*,*,#259,.F.);
#346=ORIENTED_EDGE('',*,*,#270,.F.);
#347=ORIENTED_EDGE('',*,*,#271,.T.);
#348=ORIENTED_EDGE('',*,*,#272,.T.);
#349=ORIENTED_EDGE('',*,*,#251,.F.);
#350=ORIENTED_EDGE('',*,*,#245,.F.);
#351=ORIENTED_EDGE('',*,*,#244,.F.);
#352=ORIENTED_EDGE('',*,*,#269,.F.);
#353=ORIENTED_EDGE('',*,*,#273,.F.);
#354=ORIENTED_EDGE('',*,*,#271,.F.);
#355=ORIENTED_EDGE('',*,*,#274,.T.);
#356=ORIENTED_EDGE('',*,*,#235,.T.);
#357=ORIENTED_EDGE('',*,*,#254,.F.);
#358=ORIENTED_EDGE('',*,*,#275,.F.);
#359=ORIENTED_EDGE('',*,*,#276,.T.);
#360=ORIENTED_EDGE('',*,*,#277,.T.);
#361=ORIENTED_EDGE('',*,*,#261,.F.);
#362=ORIENTED_EDGE('',*,*,#237,.F.);
#363=ORIENTED_EDGE('',*,*,#236,.F.);
#364=ORIENTED_EDGE('',*,*,#274,.F.);
#365=ORIENTED_EDGE('',*,*,#278,.F.);
#366=ORIENTED_EDGE('',*,*,#276,.F.);
#367=ORIENTED_EDGE('',*,*,#279,.T.);
#368=ORIENTED_EDGE('',*,*,#239,.T.);
#369=ORIENTED_EDGE('',*,*,#260,.F.);
#370=ORIENTED_EDGE('',*,*,#280,.F.);
#371=ORIENTED_EDGE('',*,*,#229,.F.);
#372=ORIENTED_EDGE('',*,*,#265,.F.);
#373=ORIENTED_EDGE('',*,*,#263,.F.);
#374=ORIENTED_EDGE('',*,*,#252,.T.);
#375=ORIENTED_EDGE('',*,*,#272,.F.);
#376=ORIENTED_EDGE('',*,*,#273,.T.);
#377=ORIENTED_EDGE('',*,*,#270,.T.);
#378=ORIENTED_EDGE('',*,*,#258,.T.);
#379=ORIENTED_EDGE('',*,*,#281,.F.);
#380=ORIENTED_EDGE('',*,*,#282,.T.);
#381=ORIENTED_EDGE('',*,*,#280,.T.);
#382=ORIENTED_EDGE('',*,*,#262,.T.);
#383=ORIENTED_EDGE('',*,*,#277,.F.);
#384=ORIENTED_EDGE('',*,*,#278,.T.);
#385=ORIENTED_EDGE('',*,*,#275,.T.);
#386=ORIENTED_EDGE('',*,*,#256,.T.);
#387=ORIENTED_EDGE('',*,*,#267,.F.);
#388=ORIENTED_EDGE('',*,*,#268,.T.);
#389=ORIENTED_EDGE('',*,*,#249,.T.);
#390=ORIENTED_EDGE('',*,*,#283,.T.);
#391=ORIENTED_EDGE('',*,*,#281,.T.);
#392=ORIENTED_EDGE('',*,*,#257,.F.);
#393=ORIENTED_EDGE('',*,*,#241,.F.);
#394=ORIENTED_EDGE('',*,*,#240,.F.);
#395=ORIENTED_EDGE('',*,*,#279,.F.);
#396=ORIENTED_EDGE('',*,*,#282,.F.);
#397=ORIENTED_EDGE('',*,*,#283,.F.);
#398=CYLINDRICAL_SURFACE('',#443,2.);
#399=ADVANCED_FACE('',(#35),#398,.T.);
#400=ADVANCED_FACE('',(#36),#15,.T.);
#401=ADVANCED_FACE('',(#37),#16,.T.);
#402=ADVANCED_FACE('',(#38),#17,.F.);
#403=ADVANCED_FACE('',(#39),#18,.F.);
#404=ADVANCED_FACE('',(#40),#19,.F.);
#405=ADVANCED_FACE('',(#41),#20,.F.);
#406=ADVANCED_FACE('',(#42),#21,.T.);
#407=ADVANCED_FACE('',(#43),#22,.T.);
#408=ADVANCED_FACE('',(#44),#23,.T.);
#409=ADVANCED_FACE('',(#45),#24,.F.);
#410=ADVANCED_FACE('',(#46),#25,.T.);
#411=ADVANCED_FACE('',(#47),#26,.T.);
#412=ADVANCED_FACE('',(#48),#27,.F.);
#413=ADVANCED_FACE('',(#49),#28,.T.);
#414=ADVANCED_FACE('',(#50),#29,.T.);
#415=ADVANCED_FACE('',(#51),#30,.F.);
#416=ADVANCED_FACE('',(#52),#31,.T.);
#417=ADVANCED_FACE('',(#53),#32,.T.);
#418=ADVANCED_FACE('',(#54),#33,.T.);
#419=ADVANCED_FACE('',(#55),#34,.F.);
#420=CLOSED_SHELL('',(#399,#400,#401,#402,#403,#404,#405,#406,#407,#408,
#409,#410,#411,#412,#413,#414,#415,#416,#417,#418,#419));
#421=DERIVED_UNIT_ELEMENT(#424,1.);
#422=DERIVED_UNIT_ELEMENT(#691,-3.);
#423=DIMENSIONAL_EXPONENTS(0.,1.,0.,0.,0.,0.,0.);
#424=(
CONVERSION_BASED_UNIT('gram',#426)
MASS_UNIT()
NAMED_UNIT(#423)
);
#425=(
MASS_UNIT()
NAMED_UNIT(*)
SI_UNIT(.KILO.,.GRAM.)
);
#426=MASS_MEASURE_WITH_UNIT(MASS_MEASURE(0.001),#425);
#427=DERIVED_UNIT((#421,#422));
#428=MEASURE_REPRESENTATION_ITEM('density measure',
POSITIVE_RATIO_MEASURE(8.94),#427);
#429=PROPERTY_DEFINITION_REPRESENTATION(#434,#431);
#430=PROPERTY_DEFINITION_REPRESENTATION(#435,#432);
#431=REPRESENTATION('material name',(#433),#688);
#432=REPRESENTATION('density',(#428),#688);
#433=DESCRIPTIVE_REPRESENTATION_ITEM('\X2\041C04350434044C\X0\',
'\X2\041C04350434044C\X0\');
#434=PROPERTY_DEFINITION('material property','material name',#698);
#435=PROPERTY_DEFINITION('material property','density of part',#698);
#436=DATE_TIME_ROLE('creation_date');
#437=APPLIED_DATE_AND_TIME_ASSIGNMENT(#438,#436,(#698));
#438=DATE_AND_TIME(#439,#440);
#439=CALENDAR_DATE(2025,9,12);
#440=LOCAL_TIME(0,0,0.,#441);
#441=COORDINATED_UNIVERSAL_TIME_OFFSET(0,0,.BEHIND.);
#442=AXIS2_PLACEMENT_3D('',#569,#466,#467);
#443=AXIS2_PLACEMENT_3D('',#570,#468,#469);
#444=AXIS2_PLACEMENT_3D('',#573,#470,#471);
#445=AXIS2_PLACEMENT_3D('',#577,#473,#474);
#446=AXIS2_PLACEMENT_3D('',#579,#476,#477);
#447=AXIS2_PLACEMENT_3D('',#615,#496,#497);
#448=AXIS2_PLACEMENT_3D('',#619,#500,#501);
#449=AXIS2_PLACEMENT_3D('',#625,#505,#506);
#450=AXIS2_PLACEMENT_3D('',#631,#510,#511);
#451=AXIS2_PLACEMENT_3D('',#637,#515,#516);
#452=AXIS2_PLACEMENT_3D('',#643,#520,#521);
#453=AXIS2_PLACEMENT_3D('',#647,#524,#525);
#454=AXIS2_PLACEMENT_3D('',#649,#527,#528);
#455=AXIS2_PLACEMENT_3D('',#653,#531,#532);
#456=AXIS2_PLACEMENT_3D('',#655,#534,#535);
#457=AXIS2_PLACEMENT_3D('',#659,#538,#539);
#458=AXIS2_PLACEMENT_3D('',#663,#542,#543);
#459=AXIS2_PLACEMENT_3D('',#665,#545,#546);
#460=AXIS2_PLACEMENT_3D('',#669,#549,#550);
#461=AXIS2_PLACEMENT_3D('',#673,#553,#554);
#462=AXIS2_PLACEMENT_3D('',#675,#556,#557);
#463=AXIS2_PLACEMENT_3D('',#679,#560,#561);
#464=AXIS2_PLACEMENT_3D('',#683,#564,#565);
#465=AXIS2_PLACEMENT_3D('',#685,#567,#568);
#466=DIRECTION('axis',(0.,0.,1.));
#467=DIRECTION('refdir',(1.,0.,0.));
#468=DIRECTION('center_axis',(-2.22044604925031E-16,0.,-1.));
#469=DIRECTION('ref_axis',(0.707106781186547,0.707106781186548,-1.96261557335472E-16));
#470=DIRECTION('center_axis',(0.,0.,1.));
#471=DIRECTION('ref_axis',(0.707106781186547,0.707106781186548,-1.96261557335472E-16));
#472=DIRECTION('',(2.22044604925031E-16,0.,1.));
#473=DIRECTION('center_axis',(0.,0.,-1.));
#474=DIRECTION('ref_axis',(0.707106781186547,0.707106781186548,-1.96261557335472E-16));
#475=DIRECTION('',(-2.22044604925031E-16,0.,-1.));
#476=DIRECTION('center_axis',(0.,0.,-1.));
#477=DIRECTION('ref_axis',(-1.,0.,0.));
#478=DIRECTION('',(0.,1.,0.));
#479=DIRECTION('',(-1.,0.,0.));
#480=DIRECTION('',(0.,1.,0.));
#481=DIRECTION('',(-1.,0.,8.41078048958452E-18));
#482=DIRECTION('',(0.,1.,0.));
#483=DIRECTION('',(-1.,0.,-3.70074341541719E-16));
#484=DIRECTION('',(0.,1.,0.));
#485=DIRECTION('',(-1.,0.,8.41078048958452E-18));
#486=DIRECTION('',(0.,1.,0.));
#487=DIRECTION('',(-1.,0.,0.));
#488=DIRECTION('',(0.,1.,0.));
#489=DIRECTION('',(-1.,0.,8.41078048958452E-18));
#490=DIRECTION('',(0.,1.,0.));
#491=DIRECTION('',(-1.,0.,0.));
#492=DIRECTION('',(0.,1.,0.));
#493=DIRECTION('',(-1.,0.,8.41078048958452E-18));
#494=DIRECTION('',(0.,1.,0.));
#495=DIRECTION('',(-1.,0.,8.41078048958452E-18));
#496=DIRECTION('center_axis',(1.,0.,-2.22044604925031E-16));
#497=DIRECTION('ref_axis',(-2.22044604925031E-16,0.,-1.));
#498=DIRECTION('',(0.,1.,0.));
#499=DIRECTION('',(-2.22044604925031E-16,0.,-1.));
#500=DIRECTION('center_axis',(0.,1.,0.));
#501=DIRECTION('ref_axis',(0.,0.,1.));
#502=DIRECTION('',(0.,0.,1.));
#503=DIRECTION('',(1.,0.,2.10269512239613E-18));
#504=DIRECTION('',(0.,0.,1.));
#505=DIRECTION('center_axis',(0.,1.,0.));
#506=DIRECTION('ref_axis',(0.,0.,1.));
#507=DIRECTION('',(-4.44089209850063E-16,0.,-1.));
#508=DIRECTION('',(2.22044604925031E-16,0.,1.));
#509=DIRECTION('',(1.,0.,2.10269512239613E-18));
#510=DIRECTION('center_axis',(0.,1.,0.));
#511=DIRECTION('ref_axis',(0.,0.,1.));
#512=DIRECTION('',(0.,0.,1.));
#513=DIRECTION('',(1.,0.,2.10269512239613E-18));
#514=DIRECTION('',(0.,0.,-1.));
#515=DIRECTION('center_axis',(0.,1.,0.));
#516=DIRECTION('ref_axis',(0.,0.,1.));
#517=DIRECTION('',(0.,0.,-1.));
#518=DIRECTION('',(0.,0.,1.));
#519=DIRECTION('',(1.,0.,2.10269512239613E-18));
#520=DIRECTION('center_axis',(-1.,0.,0.));
#521=DIRECTION('ref_axis',(0.,0.,1.));
#522=DIRECTION('',(0.,1.,0.));
#523=DIRECTION('',(0.,0.,1.));
#524=DIRECTION('center_axis',(0.,1.,0.));
#525=DIRECTION('ref_axis',(0.,0.,1.));
#526=DIRECTION('',(1.,0.,2.10269512239613E-18));
#527=DIRECTION('center_axis',(-1.,0.,2.22044604925031E-16));
#528=DIRECTION('ref_axis',(2.22044604925031E-16,0.,1.));
#529=DIRECTION('',(2.22044604925031E-16,0.,1.));
#530=DIRECTION('',(0.,1.,0.));
#531=DIRECTION('center_axis',(0.,1.,0.));
#532=DIRECTION('ref_axis',(0.,0.,1.));
#533=DIRECTION('',(1.,0.,0.));
#534=DIRECTION('center_axis',(1.,0.,0.));
#535=DIRECTION('ref_axis',(0.,0.,-1.));
#536=DIRECTION('',(0.,0.,-1.));
#537=DIRECTION('',(0.,1.,0.));
#538=DIRECTION('center_axis',(-1.,0.,0.));
#539=DIRECTION('ref_axis',(0.,0.,1.));
#540=DIRECTION('',(0.,0.,1.));
#541=DIRECTION('',(0.,1.,0.));
#542=DIRECTION('center_axis',(0.,1.,0.));
#543=DIRECTION('ref_axis',(0.,0.,1.));
#544=DIRECTION('',(1.,0.,0.));
#545=DIRECTION('center_axis',(1.,0.,-4.44089209850063E-16));
#546=DIRECTION('ref_axis',(-4.44089209850063E-16,0.,-1.));
#547=DIRECTION('',(-4.44089209850063E-16,0.,-1.));
#548=DIRECTION('',(0.,1.,0.));
#549=DIRECTION('center_axis',(-1.,0.,0.));
#550=DIRECTION('ref_axis',(0.,0.,1.));
#551=DIRECTION('',(0.,0.,1.));
#552=DIRECTION('',(0.,1.,0.));
#553=DIRECTION('center_axis',(0.,1.,0.));
#554=DIRECTION('ref_axis',(0.,0.,1.));
#555=DIRECTION('',(1.,0.,0.));
#556=DIRECTION('center_axis',(1.,0.,0.));
#557=DIRECTION('ref_axis',(0.,0.,-1.));
#558=DIRECTION('',(0.,0.,-1.));
#559=DIRECTION('',(0.,1.,0.));
#560=DIRECTION('center_axis',(0.,0.,1.));
#561=DIRECTION('ref_axis',(1.,0.,0.));
#562=DIRECTION('',(0.,1.,0.));
#563=DIRECTION('',(1.,0.,0.));
#564=DIRECTION('center_axis',(-1.,0.,0.));
#565=DIRECTION('ref_axis',(0.,0.,1.));
#566=DIRECTION('',(0.,0.,1.));
#567=DIRECTION('center_axis',(0.,1.,0.));
#568=DIRECTION('ref_axis',(0.,0.,1.));
#569=CARTESIAN_POINT('',(0.,0.,0.));
#570=CARTESIAN_POINT('Origin',(-2.,4.4,-1.25));
#571=CARTESIAN_POINT('',(-1.11022302462516E-15,4.4,-5.));
#572=CARTESIAN_POINT('',(-2.,6.4,-5.));
#573=CARTESIAN_POINT('Origin',(-2.,4.4,-5.00000000000001));
#574=CARTESIAN_POINT('',(-2.,6.4,-4.20539024479226E-18));
#575=CARTESIAN_POINT('',(-2.,6.4,-1.25));
#576=CARTESIAN_POINT('',(0.,4.4,0.));
#577=CARTESIAN_POINT('Origin',(-2.,4.4,-7.7715611723761E-15));
#578=CARTESIAN_POINT('',(-2.77555756156289E-16,4.4,-1.25));
#579=CARTESIAN_POINT('Origin',(-34.,0.,-5.));
#580=CARTESIAN_POINT('',(-1.11022302462516E-15,0.,-5.));
#581=CARTESIAN_POINT('',(-1.11022302462516E-15,0.,-5.));
#582=CARTESIAN_POINT('',(-3.,0.,-5.));
#583=CARTESIAN_POINT('',(-1.11022302462516E-15,0.,-5.));
#584=CARTESIAN_POINT('',(-3.,1.4,-5.));
#585=CARTESIAN_POINT('',(-3.,0.,-5.));
#586=CARTESIAN_POINT('',(-17.,1.4,-5.));
#587=CARTESIAN_POINT('',(0.,1.4,-5.));
#588=CARTESIAN_POINT('',(-17.,0.,-5.));
#589=CARTESIAN_POINT('',(-17.,0.,-5.));
#590=CARTESIAN_POINT('',(-20.,0.,-5.));
#591=CARTESIAN_POINT('',(-17.,0.,-5.));
#592=CARTESIAN_POINT('',(-20.,1.4,-5.));
#593=CARTESIAN_POINT('',(-20.,0.,-5.));
#594=CARTESIAN_POINT('',(-34.,1.4,-5.));
#595=CARTESIAN_POINT('',(0.,1.4,-5.));
#596=CARTESIAN_POINT('',(-34.,0.,-5.));
#597=CARTESIAN_POINT('',(-34.,0.,-5.));
#598=CARTESIAN_POINT('',(-37.,0.,-5.));
#599=CARTESIAN_POINT('',(-34.,0.,-5.));
#600=CARTESIAN_POINT('',(-37.,1.4,-5.));
#601=CARTESIAN_POINT('',(-37.,0.,-5.));
#602=CARTESIAN_POINT('',(-51.,1.4,-5.));
#603=CARTESIAN_POINT('',(0.,1.4,-5.));
#604=CARTESIAN_POINT('',(-51.,0.,-5.));
#605=CARTESIAN_POINT('',(-51.,0.,-5.));
#606=CARTESIAN_POINT('',(-54.,0.,-5.));
#607=CARTESIAN_POINT('',(-51.,0.,-5.));
#608=CARTESIAN_POINT('',(-54.,1.4,-5.));
#609=CARTESIAN_POINT('',(-54.,0.,-5.));
#610=CARTESIAN_POINT('',(-66.,1.4,-5.));
#611=CARTESIAN_POINT('',(0.,1.4,-5.));
#612=CARTESIAN_POINT('',(-66.,6.4,-5.));
#613=CARTESIAN_POINT('',(-66.,1.4,-5.));
#614=CARTESIAN_POINT('',(0.,6.4,-5.));
#615=CARTESIAN_POINT('Origin',(0.,0.,0.));
#616=CARTESIAN_POINT('',(0.,0.,0.));
#617=CARTESIAN_POINT('',(0.,0.,0.));
#618=CARTESIAN_POINT('',(0.,0.,0.));
#619=CARTESIAN_POINT('Origin',(-33.,1.4,-2.5));
#620=CARTESIAN_POINT('',(-54.,1.4,0.));
#621=CARTESIAN_POINT('',(-54.,1.4,-5.));
#622=CARTESIAN_POINT('',(-66.,1.4,-1.38777878078145E-16));
#623=CARTESIAN_POINT('',(-66.,1.4,-1.38777878078145E-16));
#624=CARTESIAN_POINT('',(-66.,1.4,-5.));
#625=CARTESIAN_POINT('Origin',(-33.,1.4,-2.5));
#626=CARTESIAN_POINT('',(-17.,1.4,0.));
#627=CARTESIAN_POINT('',(-17.,1.4,0.));
#628=CARTESIAN_POINT('',(-3.,1.4,0.));
#629=CARTESIAN_POINT('',(-3.,1.4,-5.));
#630=CARTESIAN_POINT('',(-66.,1.4,-1.38777878078145E-16));
#631=CARTESIAN_POINT('Origin',(-33.,1.4,-2.5));
#632=CARTESIAN_POINT('',(-37.,1.4,0.));
#633=CARTESIAN_POINT('',(-37.,1.4,-5.));
#634=CARTESIAN_POINT('',(-51.,1.4,0.));
#635=CARTESIAN_POINT('',(-66.,1.4,-1.38777878078145E-16));
#636=CARTESIAN_POINT('',(-51.,1.4,0.));
#637=CARTESIAN_POINT('Origin',(-33.,1.4,-2.5));
#638=CARTESIAN_POINT('',(-34.,1.4,0.));
#639=CARTESIAN_POINT('',(-34.,1.4,0.));
#640=CARTESIAN_POINT('',(-20.,1.4,0.));
#641=CARTESIAN_POINT('',(-20.,1.4,-5.));
#642=CARTESIAN_POINT('',(-66.,1.4,-1.38777878078145E-16));
#643=CARTESIAN_POINT('Origin',(-66.,1.4,-5.));
#644=CARTESIAN_POINT('',(-66.,6.4,0.));
#645=CARTESIAN_POINT('',(-66.,1.4,-1.38777878078145E-16));
#646=CARTESIAN_POINT('',(-66.,6.4,-5.));
#647=CARTESIAN_POINT('Origin',(-33.,6.4,-2.5));
#648=CARTESIAN_POINT('',(-66.,6.4,-1.38777878078145E-16));
#649=CARTESIAN_POINT('Origin',(-3.,0.,-5.));
#650=CARTESIAN_POINT('',(-3.,0.,0.));
#651=CARTESIAN_POINT('',(-3.,0.,-5.));
#652=CARTESIAN_POINT('',(-3.,0.,0.));
#653=CARTESIAN_POINT('Origin',(-1.5,0.,-2.5));
#654=CARTESIAN_POINT('',(-3.,0.,0.));
#655=CARTESIAN_POINT('Origin',(-51.,0.,0.));
#656=CARTESIAN_POINT('',(-51.,0.,0.));
#657=CARTESIAN_POINT('',(-51.,0.,0.));
#658=CARTESIAN_POINT('',(-51.,0.,0.));
#659=CARTESIAN_POINT('Origin',(-54.,0.,-5.));
#660=CARTESIAN_POINT('',(-54.,0.,0.));
#661=CARTESIAN_POINT('',(-54.,0.,-5.));
#662=CARTESIAN_POINT('',(-54.,0.,0.));
#663=CARTESIAN_POINT('Origin',(-52.5,0.,-2.5));
#664=CARTESIAN_POINT('',(-54.,0.,0.));
#665=CARTESIAN_POINT('Origin',(-17.,0.,0.));
#666=CARTESIAN_POINT('',(-17.,0.,0.));
#667=CARTESIAN_POINT('',(-17.,0.,0.));
#668=CARTESIAN_POINT('',(-17.,0.,0.));
#669=CARTESIAN_POINT('Origin',(-20.,0.,-5.));
#670=CARTESIAN_POINT('',(-20.,0.,0.));
#671=CARTESIAN_POINT('',(-20.,0.,-5.));
#672=CARTESIAN_POINT('',(-20.,0.,0.));
#673=CARTESIAN_POINT('Origin',(-18.5,0.,-2.5));
#674=CARTESIAN_POINT('',(-20.,0.,0.));
#675=CARTESIAN_POINT('Origin',(-34.,0.,0.));
#676=CARTESIAN_POINT('',(-34.,0.,0.));
#677=CARTESIAN_POINT('',(-34.,0.,0.));
#678=CARTESIAN_POINT('',(-34.,0.,0.));
#679=CARTESIAN_POINT('Origin',(-37.,0.,0.));
#680=CARTESIAN_POINT('',(-37.,0.,0.));
#681=CARTESIAN_POINT('',(-37.,0.,0.));
#682=CARTESIAN_POINT('',(-37.,0.,0.));
#683=CARTESIAN_POINT('Origin',(-37.,0.,-5.));
#684=CARTESIAN_POINT('',(-37.,0.,-5.));
#685=CARTESIAN_POINT('Origin',(-35.5,0.,-2.5));
#686=UNCERTAINTY_MEASURE_WITH_UNIT(LENGTH_MEASURE(0.01),#690,
'DISTANCE_ACCURACY_VALUE',
'Maximum model space distance between geometric entities at asserted c
onnectivities');
#687=UNCERTAINTY_MEASURE_WITH_UNIT(LENGTH_MEASURE(0.01),#690,
'DISTANCE_ACCURACY_VALUE',
'Maximum model space distance between geometric entities at asserted c
onnectivities');
#688=(
GEOMETRIC_REPRESENTATION_CONTEXT(3)
GLOBAL_UNCERTAINTY_ASSIGNED_CONTEXT((#686))
GLOBAL_UNIT_ASSIGNED_CONTEXT((#690,#692,#693))
REPRESENTATION_CONTEXT('','3D')
);
#689=(
GEOMETRIC_REPRESENTATION_CONTEXT(3)
GLOBAL_UNCERTAINTY_ASSIGNED_CONTEXT((#687))
GLOBAL_UNIT_ASSIGNED_CONTEXT((#690,#692,#693))
REPRESENTATION_CONTEXT('','3D')
);
#690=(
LENGTH_UNIT()
NAMED_UNIT(*)
SI_UNIT(.MILLI.,.METRE.)
);
#691=(
LENGTH_UNIT()
NAMED_UNIT(*)
SI_UNIT(.CENTI.,.METRE.)
);
#692=(
NAMED_UNIT(*)
PLANE_ANGLE_UNIT()
SI_UNIT($,.RADIAN.)
);
#693=(
NAMED_UNIT(*)
SI_UNIT($,.STERADIAN.)
SOLID_ANGLE_UNIT()
);
#694=SHAPE_DEFINITION_REPRESENTATION(#695,#696);
#695=PRODUCT_DEFINITION_SHAPE('',$,#698);
#696=SHAPE_REPRESENTATION('',(#442),#688);
#697=PRODUCT_DEFINITION_CONTEXT('part definition',#702,'design');
#698=PRODUCT_DEFINITION('Bus_copper_bottom','Bus_copper_bottom',#699,#697);
#699=PRODUCT_DEFINITION_FORMATION('',$,#704);
#700=PRODUCT_RELATED_PRODUCT_CATEGORY('Bus_copper_bottom',
'Bus_copper_bottom',(#704));
#701=APPLICATION_PROTOCOL_DEFINITION('international standard',
'automotive_design',2009,#702);
#702=APPLICATION_CONTEXT(
'Core Data for Automotive Mechanical Design Process');
#703=PRODUCT_CONTEXT('part definition',#702,'mechanical');
#704=PRODUCT('Bus_copper_bottom','Bus_copper_bottom',$,(#703));
#705=PRESENTATION_STYLE_ASSIGNMENT((#706));
#706=SURFACE_STYLE_USAGE(.BOTH.,#709);
#707=SURFACE_STYLE_RENDERING_WITH_PROPERTIES($,#713,(#708));
#708=SURFACE_STYLE_TRANSPARENT(0.);
#709=SURFACE_SIDE_STYLE('',(#710,#707));
#710=SURFACE_STYLE_FILL_AREA(#711);
#711=FILL_AREA_STYLE('',(#712));
#712=FILL_AREA_STYLE_COLOUR('',#713);
#713=COLOUR_RGB('',0.737254901960784,0.313725490196078,0.184313725490196);
ENDSEC;
END-ISO-10303-21;
