ISO-10303-21;
HEADER;
/* Generated by software containing ST-Developer
 * from STEP Tools, Inc. (www.steptools.com) 
 */

FILE_DESCRIPTION(
/* description */ (''),
/* implementation_level */ '2;1');

FILE_NAME(
/* name */ 'Bus_copper_top_v1.stp',
/* time_stamp */ '2025-12-18T13:06:33+03:00',
/* author */ ('EV-TECH'),
/* organization */ (''),
/* preprocessor_version */ 'ST-DEVELOPER v20.1',
/* originating_system */ 'Autodesk Inventor 2026',
/* authorisation */ '');

FILE_SCHEMA (('AUTOMOTIVE_DESIGN { 1 0 10303 214 3 1 1 }','FEATURE_BASED_PROCESS_PLANNING'));
ENDSEC;

DATA;
#10=MECHANICAL_DESIGN_GEOMETRIC_PRESENTATION_REPRESENTATION('',(#13),#755);
#11=SHAPE_REPRESENTATION_RELATIONSHIP('SRR','None',#762,#12);
#12=ADVANCED_BREP_SHAPE_REPRESENTATION('',(#14),#754);
#13=STYLED_ITEM('',(#771),#14);
#14=MANIFOLD_SOLID_BREP('\X2\04220432043504400434043E0435\X0\ \X2\04420435043B043E\X0\1',
#462);
#15=CIRCLE('',#489,2.);
#16=CIRCLE('',#490,2.);
#17=CYLINDRICAL_SURFACE('',#488,2.);
#18=FACE_OUTER_BOUND('',#41,.T.);
#19=FACE_OUTER_BOUND('',#42,.T.);
#20=FACE_OUTER_BOUND('',#43,.T.);
#21=FACE_OUTER_BOUND('',#44,.T.);
#22=FACE_OUTER_BOUND('',#45,.T.);
#23=FACE_OUTER_BOUND('',#46,.T.);
#24=FACE_OUTER_BOUND('',#47,.T.);
#25=FACE_OUTER_BOUND('',#48,.T.);
#26=FACE_OUTER_BOUND('',#49,.T.);
#27=FACE_OUTER_BOUND('',#50,.T.);
#28=FACE_OUTER_BOUND('',#51,.T.);
#29=FACE_OUTER_BOUND('',#52,.T.);
#30=FACE_OUTER_BOUND('',#53,.T.);
#31=FACE_OUTER_BOUND('',#54,.T.);
#32=FACE_OUTER_BOUND('',#55,.T.);
#33=FACE_OUTER_BOUND('',#56,.T.);
#34=FACE_OUTER_BOUND('',#57,.T.);
#35=FACE_OUTER_BOUND('',#58,.T.);
#36=FACE_OUTER_BOUND('',#59,.T.);
#37=FACE_OUTER_BOUND('',#60,.T.);
#38=FACE_OUTER_BOUND('',#61,.T.);
#39=FACE_OUTER_BOUND('',#62,.T.);
#40=FACE_OUTER_BOUND('',#63,.T.);
#41=EDGE_LOOP('',(#291,#292,#293,#294));
#42=EDGE_LOOP('',(#295,#296,#297,#298));
#43=EDGE_LOOP('',(#299,#300,#301,#302));
#44=EDGE_LOOP('',(#303,#304,#305,#306));
#45=EDGE_LOOP('',(#307,#308,#309,#310,#311,#312,#313,#314,#315,#316,#317,
#318,#319,#320,#321,#322,#323,#324,#325,#326,#327));
#46=EDGE_LOOP('',(#328,#329,#330,#331));
#47=EDGE_LOOP('',(#332,#333,#334,#335));
#48=EDGE_LOOP('',(#336,#337,#338,#339));
#49=EDGE_LOOP('',(#340,#341,#342,#343));
#50=EDGE_LOOP('',(#344,#345,#346,#347));
#51=EDGE_LOOP('',(#348,#349,#350,#351));
#52=EDGE_LOOP('',(#352,#353,#354,#355));
#53=EDGE_LOOP('',(#356,#357,#358,#359));
#54=EDGE_LOOP('',(#360,#361,#362,#363));
#55=EDGE_LOOP('',(#364,#365,#366,#367));
#56=EDGE_LOOP('',(#368,#369,#370,#371));
#57=EDGE_LOOP('',(#372,#373,#374,#375));
#58=EDGE_LOOP('',(#376,#377,#378,#379));
#59=EDGE_LOOP('',(#380,#381,#382,#383));
#60=EDGE_LOOP('',(#384,#385,#386,#387));
#61=EDGE_LOOP('',(#388,#389,#390,#391,#392,#393,#394,#395,#396,#397,#398,
#399,#400,#401,#402,#403,#404,#405,#406,#407,#408));
#62=EDGE_LOOP('',(#409,#410,#411,#412));
#63=EDGE_LOOP('',(#413,#414,#415,#416));
#64=LINE('',#627,#125);
#65=LINE('',#629,#126);
#66=LINE('',#631,#127);
#67=LINE('',#632,#128);
#68=LINE('',#635,#129);
#69=LINE('',#637,#130);
#70=LINE('',#638,#131);
#71=LINE('',#641,#132);
#72=LINE('',#643,#133);
#73=LINE('',#644,#134);
#74=LINE('',#650,#135);
#75=LINE('',#653,#136);
#76=LINE('',#656,#137);
#77=LINE('',#658,#138);
#78=LINE('',#660,#139);
#79=LINE('',#662,#140);
#80=LINE('',#664,#141);
#81=LINE('',#666,#142);
#82=LINE('',#668,#143);
#83=LINE('',#670,#144);
#84=LINE('',#672,#145);
#85=LINE('',#674,#146);
#86=LINE('',#676,#147);
#87=LINE('',#678,#148);
#88=LINE('',#680,#149);
#89=LINE('',#682,#150);
#90=LINE('',#683,#151);
#91=LINE('',#685,#152);
#92=LINE('',#686,#153);
#93=LINE('',#689,#154);
#94=LINE('',#690,#155);
#95=LINE('',#693,#156);
#96=LINE('',#695,#157);
#97=LINE('',#696,#158);
#98=LINE('',#699,#159);
#99=LINE('',#701,#160);
#100=LINE('',#702,#161);
#101=LINE('',#705,#162);
#102=LINE('',#707,#163);
#103=LINE('',#708,#164);
#104=LINE('',#711,#165);
#105=LINE('',#712,#166);
#106=LINE('',#714,#167);
#107=LINE('',#717,#168);
#108=LINE('',#718,#169);
#109=LINE('',#720,#170);
#110=LINE('',#723,#171);
#111=LINE('',#724,#172);
#112=LINE('',#727,#173);
#113=LINE('',#728,#174);
#114=LINE('',#730,#175);
#115=LINE('',#733,#176);
#116=LINE('',#734,#177);
#117=LINE('',#737,#178);
#118=LINE('',#738,#179);
#119=LINE('',#740,#180);
#120=LINE('',#743,#181);
#121=LINE('',#744,#182);
#122=LINE('',#747,#183);
#123=LINE('',#748,#184);
#124=LINE('',#750,#185);
#125=VECTOR('',#514,10.);
#126=VECTOR('',#515,10.);
#127=VECTOR('',#516,10.);
#128=VECTOR('',#517,10.);
#129=VECTOR('',#520,10.);
#130=VECTOR('',#521,10.);
#131=VECTOR('',#522,10.);
#132=VECTOR('',#525,10.);
#133=VECTOR('',#526,10.);
#134=VECTOR('',#527,10.);
#135=VECTOR('',#532,10.);
#136=VECTOR('',#535,10.);
#137=VECTOR('',#538,10.);
#138=VECTOR('',#539,10.);
#139=VECTOR('',#540,10.);
#140=VECTOR('',#541,10.);
#141=VECTOR('',#542,10.);
#142=VECTOR('',#543,10.);
#143=VECTOR('',#544,10.);
#144=VECTOR('',#545,10.);
#145=VECTOR('',#546,10.);
#146=VECTOR('',#547,10.);
#147=VECTOR('',#548,10.);
#148=VECTOR('',#549,10.);
#149=VECTOR('',#550,10.);
#150=VECTOR('',#551,10.);
#151=VECTOR('',#552,10.);
#152=VECTOR('',#553,10.);
#153=VECTOR('',#554,10.);
#154=VECTOR('',#557,10.);
#155=VECTOR('',#558,10.);
#156=VECTOR('',#561,10.);
#157=VECTOR('',#562,10.);
#158=VECTOR('',#563,10.);
#159=VECTOR('',#566,10.);
#160=VECTOR('',#567,10.);
#161=VECTOR('',#568,10.);
#162=VECTOR('',#571,10.);
#163=VECTOR('',#572,10.);
#164=VECTOR('',#573,10.);
#165=VECTOR('',#576,10.);
#166=VECTOR('',#577,10.);
#167=VECTOR('',#580,10.);
#168=VECTOR('',#583,10.);
#169=VECTOR('',#584,10.);
#170=VECTOR('',#587,10.);
#171=VECTOR('',#590,10.);
#172=VECTOR('',#591,10.);
#173=VECTOR('',#594,10.);
#174=VECTOR('',#595,10.);
#175=VECTOR('',#598,10.);
#176=VECTOR('',#601,10.);
#177=VECTOR('',#602,10.);
#178=VECTOR('',#605,10.);
#179=VECTOR('',#606,10.);
#180=VECTOR('',#609,10.);
#181=VECTOR('',#612,10.);
#182=VECTOR('',#613,10.);
#183=VECTOR('',#616,10.);
#184=VECTOR('',#617,10.);
#185=VECTOR('',#620,10.);
#186=VERTEX_POINT('',#625);
#187=VERTEX_POINT('',#626);
#188=VERTEX_POINT('',#628);
#189=VERTEX_POINT('',#630);
#190=VERTEX_POINT('',#634);
#191=VERTEX_POINT('',#636);
#192=VERTEX_POINT('',#640);
#193=VERTEX_POINT('',#642);
#194=VERTEX_POINT('',#646);
#195=VERTEX_POINT('',#647);
#196=VERTEX_POINT('',#649);
#197=VERTEX_POINT('',#651);
#198=VERTEX_POINT('',#655);
#199=VERTEX_POINT('',#657);
#200=VERTEX_POINT('',#659);
#201=VERTEX_POINT('',#661);
#202=VERTEX_POINT('',#663);
#203=VERTEX_POINT('',#665);
#204=VERTEX_POINT('',#667);
#205=VERTEX_POINT('',#669);
#206=VERTEX_POINT('',#671);
#207=VERTEX_POINT('',#673);
#208=VERTEX_POINT('',#675);
#209=VERTEX_POINT('',#677);
#210=VERTEX_POINT('',#679);
#211=VERTEX_POINT('',#681);
#212=VERTEX_POINT('',#684);
#213=VERTEX_POINT('',#688);
#214=VERTEX_POINT('',#692);
#215=VERTEX_POINT('',#694);
#216=VERTEX_POINT('',#698);
#217=VERTEX_POINT('',#700);
#218=VERTEX_POINT('',#704);
#219=VERTEX_POINT('',#706);
#220=VERTEX_POINT('',#710);
#221=VERTEX_POINT('',#716);
#222=VERTEX_POINT('',#722);
#223=VERTEX_POINT('',#726);
#224=VERTEX_POINT('',#732);
#225=VERTEX_POINT('',#736);
#226=VERTEX_POINT('',#742);
#227=VERTEX_POINT('',#746);
#228=EDGE_CURVE('',#186,#187,#64,.T.);
#229=EDGE_CURVE('',#186,#188,#65,.T.);
#230=EDGE_CURVE('',#189,#188,#66,.T.);
#231=EDGE_CURVE('',#187,#189,#67,.T.);
#232=EDGE_CURVE('',#190,#189,#68,.T.);
#233=EDGE_CURVE('',#188,#191,#69,.T.);
#234=EDGE_CURVE('',#191,#190,#70,.T.);
#235=EDGE_CURVE('',#192,#187,#71,.T.);
#236=EDGE_CURVE('',#192,#193,#72,.T.);
#237=EDGE_CURVE('',#186,#193,#73,.T.);
#238=EDGE_CURVE('',#194,#195,#15,.T.);
#239=EDGE_CURVE('',#195,#196,#74,.T.);
#240=EDGE_CURVE('',#196,#197,#16,.T.);
#241=EDGE_CURVE('',#197,#194,#75,.T.);
#242=EDGE_CURVE('',#198,#194,#76,.T.);
#243=EDGE_CURVE('',#198,#199,#77,.T.);
#244=EDGE_CURVE('',#199,#200,#78,.T.);
#245=EDGE_CURVE('',#200,#201,#79,.T.);
#246=EDGE_CURVE('',#202,#201,#80,.T.);
#247=EDGE_CURVE('',#202,#203,#81,.T.);
#248=EDGE_CURVE('',#203,#204,#82,.T.);
#249=EDGE_CURVE('',#204,#205,#83,.T.);
#250=EDGE_CURVE('',#206,#205,#84,.T.);
#251=EDGE_CURVE('',#206,#207,#85,.T.);
#252=EDGE_CURVE('',#207,#208,#86,.T.);
#253=EDGE_CURVE('',#208,#209,#87,.T.);
#254=EDGE_CURVE('',#210,#209,#88,.T.);
#255=EDGE_CURVE('',#210,#211,#89,.T.);
#256=EDGE_CURVE('',#211,#192,#90,.T.);
#257=EDGE_CURVE('',#190,#212,#91,.T.);
#258=EDGE_CURVE('',#195,#212,#92,.T.);
#259=EDGE_CURVE('',#213,#197,#93,.T.);
#260=EDGE_CURVE('',#213,#198,#94,.T.);
#261=EDGE_CURVE('',#214,#201,#95,.T.);
#262=EDGE_CURVE('',#200,#215,#96,.T.);
#263=EDGE_CURVE('',#214,#215,#97,.T.);
#264=EDGE_CURVE('',#208,#216,#98,.T.);
#265=EDGE_CURVE('',#217,#216,#99,.T.);
#266=EDGE_CURVE('',#217,#209,#100,.T.);
#267=EDGE_CURVE('',#218,#205,#101,.T.);
#268=EDGE_CURVE('',#204,#219,#102,.T.);
#269=EDGE_CURVE('',#218,#219,#103,.T.);
#270=EDGE_CURVE('',#191,#220,#104,.T.);
#271=EDGE_CURVE('',#212,#220,#105,.T.);
#272=EDGE_CURVE('',#220,#196,#106,.T.);
#273=EDGE_CURVE('',#199,#221,#107,.T.);
#274=EDGE_CURVE('',#221,#215,#108,.T.);
#275=EDGE_CURVE('',#221,#213,#109,.T.);
#276=EDGE_CURVE('',#222,#210,#110,.T.);
#277=EDGE_CURVE('',#222,#217,#111,.T.);
#278=EDGE_CURVE('',#211,#223,#112,.T.);
#279=EDGE_CURVE('',#223,#193,#113,.T.);
#280=EDGE_CURVE('',#223,#222,#114,.T.);
#281=EDGE_CURVE('',#224,#202,#115,.T.);
#282=EDGE_CURVE('',#224,#214,#116,.T.);
#283=EDGE_CURVE('',#203,#225,#117,.T.);
#284=EDGE_CURVE('',#225,#219,#118,.T.);
#285=EDGE_CURVE('',#225,#224,#119,.T.);
#286=EDGE_CURVE('',#226,#206,#120,.T.);
#287=EDGE_CURVE('',#226,#218,#121,.T.);
#288=EDGE_CURVE('',#227,#216,#122,.T.);
#289=EDGE_CURVE('',#227,#226,#123,.T.);
#290=EDGE_CURVE('',#207,#227,#124,.T.);
#291=ORIENTED_EDGE('',*,*,#228,.F.);
#292=ORIENTED_EDGE('',*,*,#229,.T.);
#293=ORIENTED_EDGE('',*,*,#230,.F.);
#294=ORIENTED_EDGE('',*,*,#231,.F.);
#295=ORIENTED_EDGE('',*,*,#232,.T.);
#296=ORIENTED_EDGE('',*,*,#230,.T.);
#297=ORIENTED_EDGE('',*,*,#233,.T.);
#298=ORIENTED_EDGE('',*,*,#234,.T.);
#299=ORIENTED_EDGE('',*,*,#228,.T.);
#300=ORIENTED_EDGE('',*,*,#235,.F.);
#301=ORIENTED_EDGE('',*,*,#236,.T.);
#302=ORIENTED_EDGE('',*,*,#237,.F.);
#303=ORIENTED_EDGE('',*,*,#238,.T.);
#304=ORIENTED_EDGE('',*,*,#239,.T.);
#305=ORIENTED_EDGE('',*,*,#240,.T.);
#306=ORIENTED_EDGE('',*,*,#241,.T.);
#307=ORIENTED_EDGE('',*,*,#238,.F.);
#308=ORIENTED_EDGE('',*,*,#242,.F.);
#309=ORIENTED_EDGE('',*,*,#243,.T.);
#310=ORIENTED_EDGE('',*,*,#244,.T.);
#311=ORIENTED_EDGE('',*,*,#245,.T.);
#312=ORIENTED_EDGE('',*,*,#246,.F.);
#313=ORIENTED_EDGE('',*,*,#247,.T.);
#314=ORIENTED_EDGE('',*,*,#248,.T.);
#315=ORIENTED_EDGE('',*,*,#249,.T.);
#316=ORIENTED_EDGE('',*,*,#250,.F.);
#317=ORIENTED_EDGE('',*,*,#251,.T.);
#318=ORIENTED_EDGE('',*,*,#252,.T.);
#319=ORIENTED_EDGE('',*,*,#253,.T.);
#320=ORIENTED_EDGE('',*,*,#254,.F.);
#321=ORIENTED_EDGE('',*,*,#255,.T.);
#322=ORIENTED_EDGE('',*,*,#256,.T.);
#323=ORIENTED_EDGE('',*,*,#235,.T.);
#324=ORIENTED_EDGE('',*,*,#231,.T.);
#325=ORIENTED_EDGE('',*,*,#232,.F.);
#326=ORIENTED_EDGE('',*,*,#257,.T.);
#327=ORIENTED_EDGE('',*,*,#258,.F.);
#328=ORIENTED_EDGE('',*,*,#241,.F.);
#329=ORIENTED_EDGE('',*,*,#259,.F.);
#330=ORIENTED_EDGE('',*,*,#260,.T.);
#331=ORIENTED_EDGE('',*,*,#242,.T.);
#332=ORIENTED_EDGE('',*,*,#261,.T.);
#333=ORIENTED_EDGE('',*,*,#245,.F.);
#334=ORIENTED_EDGE('',*,*,#262,.T.);
#335=ORIENTED_EDGE('',*,*,#263,.F.);
#336=ORIENTED_EDGE('',*,*,#264,.T.);
#337=ORIENTED_EDGE('',*,*,#265,.F.);
#338=ORIENTED_EDGE('',*,*,#266,.T.);
#339=ORIENTED_EDGE('',*,*,#253,.F.);
#340=ORIENTED_EDGE('',*,*,#267,.T.);
#341=ORIENTED_EDGE('',*,*,#249,.F.);
#342=ORIENTED_EDGE('',*,*,#268,.T.);
#343=ORIENTED_EDGE('',*,*,#269,.F.);
#344=ORIENTED_EDGE('',*,*,#270,.T.);
#345=ORIENTED_EDGE('',*,*,#271,.F.);
#346=ORIENTED_EDGE('',*,*,#257,.F.);
#347=ORIENTED_EDGE('',*,*,#234,.F.);
#348=ORIENTED_EDGE('',*,*,#239,.F.);
#349=ORIENTED_EDGE('',*,*,#258,.T.);
#350=ORIENTED_EDGE('',*,*,#271,.T.);
#351=ORIENTED_EDGE('',*,*,#272,.T.);
#352=ORIENTED_EDGE('',*,*,#273,.T.);
#353=ORIENTED_EDGE('',*,*,#274,.T.);
#354=ORIENTED_EDGE('',*,*,#262,.F.);
#355=ORIENTED_EDGE('',*,*,#244,.F.);
#356=ORIENTED_EDGE('',*,*,#243,.F.);
#357=ORIENTED_EDGE('',*,*,#260,.F.);
#358=ORIENTED_EDGE('',*,*,#275,.F.);
#359=ORIENTED_EDGE('',*,*,#273,.F.);
#360=ORIENTED_EDGE('',*,*,#276,.T.);
#361=ORIENTED_EDGE('',*,*,#254,.T.);
#362=ORIENTED_EDGE('',*,*,#266,.F.);
#363=ORIENTED_EDGE('',*,*,#277,.F.);
#364=ORIENTED_EDGE('',*,*,#278,.T.);
#365=ORIENTED_EDGE('',*,*,#279,.T.);
#366=ORIENTED_EDGE('',*,*,#236,.F.);
#367=ORIENTED_EDGE('',*,*,#256,.F.);
#368=ORIENTED_EDGE('',*,*,#255,.F.);
#369=ORIENTED_EDGE('',*,*,#276,.F.);
#370=ORIENTED_EDGE('',*,*,#280,.F.);
#371=ORIENTED_EDGE('',*,*,#278,.F.);
#372=ORIENTED_EDGE('',*,*,#281,.T.);
#373=ORIENTED_EDGE('',*,*,#246,.T.);
#374=ORIENTED_EDGE('',*,*,#261,.F.);
#375=ORIENTED_EDGE('',*,*,#282,.F.);
#376=ORIENTED_EDGE('',*,*,#283,.T.);
#377=ORIENTED_EDGE('',*,*,#284,.T.);
#378=ORIENTED_EDGE('',*,*,#268,.F.);
#379=ORIENTED_EDGE('',*,*,#248,.F.);
#380=ORIENTED_EDGE('',*,*,#247,.F.);
#381=ORIENTED_EDGE('',*,*,#281,.F.);
#382=ORIENTED_EDGE('',*,*,#285,.F.);
#383=ORIENTED_EDGE('',*,*,#283,.F.);
#384=ORIENTED_EDGE('',*,*,#286,.T.);
#385=ORIENTED_EDGE('',*,*,#250,.T.);
#386=ORIENTED_EDGE('',*,*,#267,.F.);
#387=ORIENTED_EDGE('',*,*,#287,.F.);
#388=ORIENTED_EDGE('',*,*,#240,.F.);
#389=ORIENTED_EDGE('',*,*,#272,.F.);
#390=ORIENTED_EDGE('',*,*,#270,.F.);
#391=ORIENTED_EDGE('',*,*,#233,.F.);
#392=ORIENTED_EDGE('',*,*,#229,.F.);
#393=ORIENTED_EDGE('',*,*,#237,.T.);
#394=ORIENTED_EDGE('',*,*,#279,.F.);
#395=ORIENTED_EDGE('',*,*,#280,.T.);
#396=ORIENTED_EDGE('',*,*,#277,.T.);
#397=ORIENTED_EDGE('',*,*,#265,.T.);
#398=ORIENTED_EDGE('',*,*,#288,.F.);
#399=ORIENTED_EDGE('',*,*,#289,.T.);
#400=ORIENTED_EDGE('',*,*,#287,.T.);
#401=ORIENTED_EDGE('',*,*,#269,.T.);
#402=ORIENTED_EDGE('',*,*,#284,.F.);
#403=ORIENTED_EDGE('',*,*,#285,.T.);
#404=ORIENTED_EDGE('',*,*,#282,.T.);
#405=ORIENTED_EDGE('',*,*,#263,.T.);
#406=ORIENTED_EDGE('',*,*,#274,.F.);
#407=ORIENTED_EDGE('',*,*,#275,.T.);
#408=ORIENTED_EDGE('',*,*,#259,.T.);
#409=ORIENTED_EDGE('',*,*,#290,.T.);
#410=ORIENTED_EDGE('',*,*,#288,.T.);
#411=ORIENTED_EDGE('',*,*,#264,.F.);
#412=ORIENTED_EDGE('',*,*,#252,.F.);
#413=ORIENTED_EDGE('',*,*,#251,.F.);
#414=ORIENTED_EDGE('',*,*,#286,.F.);
#415=ORIENTED_EDGE('',*,*,#289,.F.);
#416=ORIENTED_EDGE('',*,*,#290,.F.);
#417=PLANE('',#485);
#418=PLANE('',#486);
#419=PLANE('',#487);
#420=PLANE('',#491);
#421=PLANE('',#492);
#422=PLANE('',#493);
#423=PLANE('',#494);
#424=PLANE('',#495);
#425=PLANE('',#496);
#426=PLANE('',#497);
#427=PLANE('',#498);
#428=PLANE('',#499);
#429=PLANE('',#500);
#430=PLANE('',#501);
#431=PLANE('',#502);
#432=PLANE('',#503);
#433=PLANE('',#504);
#434=PLANE('',#505);
#435=PLANE('',#506);
#436=PLANE('',#507);
#437=PLANE('',#508);
#438=PLANE('',#509);
#439=ADVANCED_FACE('',(#18),#417,.T.);
#440=ADVANCED_FACE('',(#19),#418,.T.);
#441=ADVANCED_FACE('',(#20),#419,.F.);
#442=ADVANCED_FACE('',(#21),#17,.T.);
#443=ADVANCED_FACE('',(#22),#420,.T.);
#444=ADVANCED_FACE('',(#23),#421,.T.);
#445=ADVANCED_FACE('',(#24),#422,.F.);
#446=ADVANCED_FACE('',(#25),#423,.F.);
#447=ADVANCED_FACE('',(#26),#424,.F.);
#448=ADVANCED_FACE('',(#27),#425,.T.);
#449=ADVANCED_FACE('',(#28),#426,.T.);
#450=ADVANCED_FACE('',(#29),#427,.T.);
#451=ADVANCED_FACE('',(#30),#428,.F.);
#452=ADVANCED_FACE('',(#31),#429,.T.);
#453=ADVANCED_FACE('',(#32),#430,.T.);
#454=ADVANCED_FACE('',(#33),#431,.F.);
#455=ADVANCED_FACE('',(#34),#432,.T.);
#456=ADVANCED_FACE('',(#35),#433,.T.);
#457=ADVANCED_FACE('',(#36),#434,.F.);
#458=ADVANCED_FACE('',(#37),#435,.T.);
#459=ADVANCED_FACE('',(#38),#436,.T.);
#460=ADVANCED_FACE('',(#39),#437,.T.);
#461=ADVANCED_FACE('',(#40),#438,.F.);
#462=CLOSED_SHELL('',(#439,#440,#441,#442,#443,#444,#445,#446,#447,#448,
#449,#450,#451,#452,#453,#454,#455,#456,#457,#458,#459,#460,#461));
#463=DERIVED_UNIT_ELEMENT(#466,1.);
#464=DERIVED_UNIT_ELEMENT(#757,-3.);
#465=DIMENSIONAL_EXPONENTS(0.,1.,0.,0.,0.,0.,0.);
#466=(
CONVERSION_BASED_UNIT('gram',#468)
MASS_UNIT()
NAMED_UNIT(#465)
);
#467=(
MASS_UNIT()
NAMED_UNIT(*)
SI_UNIT(.KILO.,.GRAM.)
);
#468=MASS_MEASURE_WITH_UNIT(MASS_MEASURE(0.001),#467);
#469=DERIVED_UNIT((#463,#464));
#470=MEASURE_REPRESENTATION_ITEM('density measure',
POSITIVE_RATIO_MEASURE(8.94),#469);
#471=PROPERTY_DEFINITION_REPRESENTATION(#476,#473);
#472=PROPERTY_DEFINITION_REPRESENTATION(#477,#474);
#473=REPRESENTATION('material name',(#475),#754);
#474=REPRESENTATION('density',(#470),#754);
#475=DESCRIPTIVE_REPRESENTATION_ITEM('\X2\041C04350434044C\X0\',
'\X2\041C04350434044C\X0\');
#476=PROPERTY_DEFINITION('material property','material name',#764);
#477=PROPERTY_DEFINITION('material property','density of part',#764);
#478=DATE_TIME_ROLE('creation_date');
#479=APPLIED_DATE_AND_TIME_ASSIGNMENT(#480,#478,(#764));
#480=DATE_AND_TIME(#481,#482);
#481=CALENDAR_DATE(2025,9,12);
#482=LOCAL_TIME(0,0,0.,#483);
#483=COORDINATED_UNIVERSAL_TIME_OFFSET(0,0,.BEHIND.);
#484=AXIS2_PLACEMENT_3D('',#623,#510,#511);
#485=AXIS2_PLACEMENT_3D('',#624,#512,#513);
#486=AXIS2_PLACEMENT_3D('',#633,#518,#519);
#487=AXIS2_PLACEMENT_3D('',#639,#523,#524);
#488=AXIS2_PLACEMENT_3D('',#645,#528,#529);
#489=AXIS2_PLACEMENT_3D('',#648,#530,#531);
#490=AXIS2_PLACEMENT_3D('',#652,#533,#534);
#491=AXIS2_PLACEMENT_3D('',#654,#536,#537);
#492=AXIS2_PLACEMENT_3D('',#687,#555,#556);
#493=AXIS2_PLACEMENT_3D('',#691,#559,#560);
#494=AXIS2_PLACEMENT_3D('',#697,#564,#565);
#495=AXIS2_PLACEMENT_3D('',#703,#569,#570);
#496=AXIS2_PLACEMENT_3D('',#709,#574,#575);
#497=AXIS2_PLACEMENT_3D('',#713,#578,#579);
#498=AXIS2_PLACEMENT_3D('',#715,#581,#582);
#499=AXIS2_PLACEMENT_3D('',#719,#585,#586);
#500=AXIS2_PLACEMENT_3D('',#721,#588,#589);
#501=AXIS2_PLACEMENT_3D('',#725,#592,#593);
#502=AXIS2_PLACEMENT_3D('',#729,#596,#597);
#503=AXIS2_PLACEMENT_3D('',#731,#599,#600);
#504=AXIS2_PLACEMENT_3D('',#735,#603,#604);
#505=AXIS2_PLACEMENT_3D('',#739,#607,#608);
#506=AXIS2_PLACEMENT_3D('',#741,#610,#611);
#507=AXIS2_PLACEMENT_3D('',#745,#614,#615);
#508=AXIS2_PLACEMENT_3D('',#749,#618,#619);
#509=AXIS2_PLACEMENT_3D('',#751,#621,#622);
#510=DIRECTION('axis',(0.,0.,1.));
#511=DIRECTION('refdir',(1.,0.,0.));
#512=DIRECTION('center_axis',(1.,0.,0.));
#513=DIRECTION('ref_axis',(0.,0.,1.));
#514=DIRECTION('',(0.,0.,-1.));
#515=DIRECTION('',(0.,-1.,0.));
#516=DIRECTION('',(0.,0.,1.));
#517=DIRECTION('',(0.,-1.,0.));
#518=DIRECTION('center_axis',(0.,-1.,0.));
#519=DIRECTION('ref_axis',(0.,0.,-1.));
#520=DIRECTION('',(1.,0.,1.11022302462516E-16));
#521=DIRECTION('',(-1.,0.,6.77791834325493E-20));
#522=DIRECTION('',(0.,0.,-1.));
#523=DIRECTION('center_axis',(0.,1.,0.));
#524=DIRECTION('ref_axis',(0.,0.,1.));
#525=DIRECTION('',(-1.,0.,1.70803542250024E-17));
#526=DIRECTION('',(0.,0.,1.));
#527=DIRECTION('',(1.,0.,2.1350442781253E-18));
#528=DIRECTION('center_axis',(-2.22044604925031E-16,0.,-1.));
#529=DIRECTION('ref_axis',(0.707106781186547,0.707106781186548,-1.96261557335472E-16));
#530=DIRECTION('center_axis',(0.,0.,1.));
#531=DIRECTION('ref_axis',(0.707106781186547,0.707106781186548,-1.96261557335472E-16));
#532=DIRECTION('',(2.22044604925031E-16,0.,1.));
#533=DIRECTION('center_axis',(0.,0.,-1.));
#534=DIRECTION('ref_axis',(0.707106781186547,0.707106781186548,-1.96261557335472E-16));
#535=DIRECTION('',(-2.22044604925031E-16,0.,-1.));
#536=DIRECTION('center_axis',(0.,0.,-1.));
#537=DIRECTION('ref_axis',(-1.,0.,0.));
#538=DIRECTION('',(0.,1.,0.));
#539=DIRECTION('',(-1.,0.,0.));
#540=DIRECTION('',(0.,1.,0.));
#541=DIRECTION('',(-1.,0.,1.70803542250024E-17));
#542=DIRECTION('',(0.,1.,0.));
#543=DIRECTION('',(-1.,0.,-3.70074341541719E-16));
#544=DIRECTION('',(0.,1.,0.));
#545=DIRECTION('',(-1.,0.,1.70803542250024E-17));
#546=DIRECTION('',(0.,1.,0.));
#547=DIRECTION('',(-1.,0.,0.));
#548=DIRECTION('',(0.,1.,0.));
#549=DIRECTION('',(-1.,0.,1.70803542250024E-17));
#550=DIRECTION('',(0.,1.,0.));
#551=DIRECTION('',(-1.,0.,0.));
#552=DIRECTION('',(0.,1.,0.));
#553=DIRECTION('',(0.,1.,0.));
#554=DIRECTION('',(-1.,0.,1.70803542250024E-17));
#555=DIRECTION('center_axis',(1.,0.,-2.22044604925031E-16));
#556=DIRECTION('ref_axis',(-2.22044604925031E-16,0.,-1.));
#557=DIRECTION('',(0.,1.,0.));
#558=DIRECTION('',(-2.22044604925031E-16,0.,-1.));
#559=DIRECTION('center_axis',(0.,1.,0.));
#560=DIRECTION('ref_axis',(0.,0.,1.));
#561=DIRECTION('',(-4.44089209850063E-16,0.,-1.));
#562=DIRECTION('',(2.22044604925031E-16,0.,1.));
#563=DIRECTION('',(1.,0.,2.1350442781253E-18));
#564=DIRECTION('center_axis',(0.,1.,0.));
#565=DIRECTION('ref_axis',(0.,0.,1.));
#566=DIRECTION('',(0.,0.,1.));
#567=DIRECTION('',(1.,0.,2.1350442781253E-18));
#568=DIRECTION('',(0.,0.,-1.));
#569=DIRECTION('center_axis',(0.,1.,0.));
#570=DIRECTION('ref_axis',(0.,0.,1.));
#571=DIRECTION('',(0.,0.,-1.));
#572=DIRECTION('',(0.,0.,1.));
#573=DIRECTION('',(1.,0.,2.1350442781253E-18));
#574=DIRECTION('center_axis',(-1.,0.,0.));
#575=DIRECTION('ref_axis',(0.,0.,1.));
#576=DIRECTION('',(0.,1.,0.));
#577=DIRECTION('',(0.,0.,1.));
#578=DIRECTION('center_axis',(0.,1.,0.));
#579=DIRECTION('ref_axis',(0.,0.,1.));
#580=DIRECTION('',(1.,0.,2.1350442781253E-18));
#581=DIRECTION('center_axis',(-1.,0.,2.22044604925031E-16));
#582=DIRECTION('ref_axis',(2.22044604925031E-16,0.,1.));
#583=DIRECTION('',(2.22044604925031E-16,0.,1.));
#584=DIRECTION('',(0.,1.,0.));
#585=DIRECTION('center_axis',(0.,1.,0.));
#586=DIRECTION('ref_axis',(0.,0.,1.));
#587=DIRECTION('',(1.,0.,0.));
#588=DIRECTION('center_axis',(1.,0.,0.));
#589=DIRECTION('ref_axis',(0.,0.,-1.));
#590=DIRECTION('',(0.,0.,-1.));
#591=DIRECTION('',(0.,1.,0.));
#592=DIRECTION('center_axis',(-1.,0.,0.));
#593=DIRECTION('ref_axis',(0.,0.,1.));
#594=DIRECTION('',(0.,0.,1.));
#595=DIRECTION('',(0.,1.,0.));
#596=DIRECTION('center_axis',(0.,1.,0.));
#597=DIRECTION('ref_axis',(0.,0.,1.));
#598=DIRECTION('',(1.,0.,0.));
#599=DIRECTION('center_axis',(1.,0.,-4.44089209850063E-16));
#600=DIRECTION('ref_axis',(-4.44089209850063E-16,0.,-1.));
#601=DIRECTION('',(-4.44089209850063E-16,0.,-1.));
#602=DIRECTION('',(0.,1.,0.));
#603=DIRECTION('center_axis',(-1.,0.,0.));
#604=DIRECTION('ref_axis',(0.,0.,1.));
#605=DIRECTION('',(0.,0.,1.));
#606=DIRECTION('',(0.,1.,0.));
#607=DIRECTION('center_axis',(0.,1.,0.));
#608=DIRECTION('ref_axis',(0.,0.,1.));
#609=DIRECTION('',(1.,0.,0.));
#610=DIRECTION('center_axis',(1.,0.,0.));
#611=DIRECTION('ref_axis',(0.,0.,-1.));
#612=DIRECTION('',(0.,0.,-1.));
#613=DIRECTION('',(0.,1.,0.));
#614=DIRECTION('center_axis',(0.,0.,1.));
#615=DIRECTION('ref_axis',(1.,0.,0.));
#616=DIRECTION('',(0.,1.,0.));
#617=DIRECTION('',(1.,0.,0.));
#618=DIRECTION('center_axis',(-1.,0.,0.));
#619=DIRECTION('ref_axis',(0.,0.,1.));
#620=DIRECTION('',(0.,0.,1.));
#621=DIRECTION('center_axis',(0.,1.,0.));
#622=DIRECTION('ref_axis',(0.,0.,1.));
#623=CARTESIAN_POINT('',(0.,0.,0.));
#624=CARTESIAN_POINT('Origin',(-60.,1.4,-5.));
#625=CARTESIAN_POINT('',(-60.,1.4,0.));
#626=CARTESIAN_POINT('',(-60.,1.4,-5.));
#627=CARTESIAN_POINT('',(-60.,1.4,-3.75));
#628=CARTESIAN_POINT('',(-60.,-5.1,0.));
#629=CARTESIAN_POINT('',(-60.,1.4,0.));
#630=CARTESIAN_POINT('',(-60.,-5.1,-5.));
#631=CARTESIAN_POINT('',(-60.,-5.1,-5.));
#632=CARTESIAN_POINT('',(-60.,1.4,-5.));
#633=CARTESIAN_POINT('Origin',(-62.5,-5.1,-2.5));
#634=CARTESIAN_POINT('',(-65.,-5.1,-5.));
#635=CARTESIAN_POINT('',(-65.,-5.1,-5.));
#636=CARTESIAN_POINT('',(-65.,-5.1,0.));
#637=CARTESIAN_POINT('',(-2.,-5.1,-4.2700885562506E-18));
#638=CARTESIAN_POINT('',(-65.,-5.1,0.));
#639=CARTESIAN_POINT('Origin',(-32.5,1.4,-2.5));
#640=CARTESIAN_POINT('',(-54.,1.4,-5.));
#641=CARTESIAN_POINT('',(0.,1.4,-5.));
#642=CARTESIAN_POINT('',(-54.,1.4,0.));
#643=CARTESIAN_POINT('',(-54.,1.4,-5.));
#644=CARTESIAN_POINT('',(-65.,1.4,-1.38777878078145E-16));
#645=CARTESIAN_POINT('Origin',(-2.,4.4,-1.25));
#646=CARTESIAN_POINT('',(-1.11022302462516E-15,4.4,-5.));
#647=CARTESIAN_POINT('',(-2.,6.4,-5.));
#648=CARTESIAN_POINT('Origin',(-2.,4.4,-5.00000000000001));
#649=CARTESIAN_POINT('',(-2.,6.4,-4.2700885562506E-18));
#650=CARTESIAN_POINT('',(-2.,6.4,-1.25));
#651=CARTESIAN_POINT('',(0.,4.4,0.));
#652=CARTESIAN_POINT('Origin',(-2.,4.4,-7.7715611723761E-15));
#653=CARTESIAN_POINT('',(-2.77555756156289E-16,4.4,-1.25));
#654=CARTESIAN_POINT('Origin',(-34.,0.,-5.));
#655=CARTESIAN_POINT('',(-1.11022302462516E-15,0.,-5.));
#656=CARTESIAN_POINT('',(-1.11022302462516E-15,0.,-5.));
#657=CARTESIAN_POINT('',(-3.,0.,-5.));
#658=CARTESIAN_POINT('',(-1.11022302462516E-15,0.,-5.));
#659=CARTESIAN_POINT('',(-3.,1.4,-5.));
#660=CARTESIAN_POINT('',(-3.,0.,-5.));
#661=CARTESIAN_POINT('',(-17.,1.4,-5.));
#662=CARTESIAN_POINT('',(0.,1.4,-5.));
#663=CARTESIAN_POINT('',(-17.,0.,-5.));
#664=CARTESIAN_POINT('',(-17.,0.,-5.));
#665=CARTESIAN_POINT('',(-20.,0.,-5.));
#666=CARTESIAN_POINT('',(-17.,0.,-5.));
#667=CARTESIAN_POINT('',(-20.,1.4,-5.));
#668=CARTESIAN_POINT('',(-20.,0.,-5.));
#669=CARTESIAN_POINT('',(-34.,1.4,-5.));
#670=CARTESIAN_POINT('',(0.,1.4,-5.));
#671=CARTESIAN_POINT('',(-34.,0.,-5.));
#672=CARTESIAN_POINT('',(-34.,0.,-5.));
#673=CARTESIAN_POINT('',(-37.,0.,-5.));
#674=CARTESIAN_POINT('',(-34.,0.,-5.));
#675=CARTESIAN_POINT('',(-37.,1.4,-5.));
#676=CARTESIAN_POINT('',(-37.,0.,-5.));
#677=CARTESIAN_POINT('',(-51.,1.4,-5.));
#678=CARTESIAN_POINT('',(0.,1.4,-5.));
#679=CARTESIAN_POINT('',(-51.,0.,-5.));
#680=CARTESIAN_POINT('',(-51.,0.,-5.));
#681=CARTESIAN_POINT('',(-54.,0.,-5.));
#682=CARTESIAN_POINT('',(-51.,0.,-5.));
#683=CARTESIAN_POINT('',(-54.,0.,-5.));
#684=CARTESIAN_POINT('',(-65.,6.4,-5.));
#685=CARTESIAN_POINT('',(-65.,1.4,-5.));
#686=CARTESIAN_POINT('',(0.,6.4,-5.));
#687=CARTESIAN_POINT('Origin',(0.,0.,0.));
#688=CARTESIAN_POINT('',(0.,0.,0.));
#689=CARTESIAN_POINT('',(0.,0.,0.));
#690=CARTESIAN_POINT('',(0.,0.,0.));
#691=CARTESIAN_POINT('Origin',(-32.5,1.4,-2.5));
#692=CARTESIAN_POINT('',(-17.,1.4,0.));
#693=CARTESIAN_POINT('',(-17.,1.4,0.));
#694=CARTESIAN_POINT('',(-3.,1.4,0.));
#695=CARTESIAN_POINT('',(-3.,1.4,-5.));
#696=CARTESIAN_POINT('',(-65.,1.4,-1.38777878078145E-16));
#697=CARTESIAN_POINT('Origin',(-32.5,1.4,-2.5));
#698=CARTESIAN_POINT('',(-37.,1.4,0.));
#699=CARTESIAN_POINT('',(-37.,1.4,-5.));
#700=CARTESIAN_POINT('',(-51.,1.4,0.));
#701=CARTESIAN_POINT('',(-65.,1.4,-1.38777878078145E-16));
#702=CARTESIAN_POINT('',(-51.,1.4,0.));
#703=CARTESIAN_POINT('Origin',(-32.5,1.4,-2.5));
#704=CARTESIAN_POINT('',(-34.,1.4,0.));
#705=CARTESIAN_POINT('',(-34.,1.4,0.));
#706=CARTESIAN_POINT('',(-20.,1.4,0.));
#707=CARTESIAN_POINT('',(-20.,1.4,-5.));
#708=CARTESIAN_POINT('',(-65.,1.4,-1.38777878078145E-16));
#709=CARTESIAN_POINT('Origin',(-65.,1.4,-5.));
#710=CARTESIAN_POINT('',(-65.,6.4,0.));
#711=CARTESIAN_POINT('',(-65.,1.4,-1.38777878078145E-16));
#712=CARTESIAN_POINT('',(-65.,6.4,-5.));
#713=CARTESIAN_POINT('Origin',(-32.5,6.4,-2.5));
#714=CARTESIAN_POINT('',(-65.,6.4,-1.38777878078145E-16));
#715=CARTESIAN_POINT('Origin',(-3.,0.,-5.));
#716=CARTESIAN_POINT('',(-3.,0.,0.));
#717=CARTESIAN_POINT('',(-3.,0.,-5.));
#718=CARTESIAN_POINT('',(-3.,0.,0.));
#719=CARTESIAN_POINT('Origin',(-1.5,0.,-2.5));
#720=CARTESIAN_POINT('',(-3.,0.,0.));
#721=CARTESIAN_POINT('Origin',(-51.,0.,0.));
#722=CARTESIAN_POINT('',(-51.,0.,0.));
#723=CARTESIAN_POINT('',(-51.,0.,0.));
#724=CARTESIAN_POINT('',(-51.,0.,0.));
#725=CARTESIAN_POINT('Origin',(-54.,0.,-5.));
#726=CARTESIAN_POINT('',(-54.,0.,0.));
#727=CARTESIAN_POINT('',(-54.,0.,-5.));
#728=CARTESIAN_POINT('',(-54.,0.,0.));
#729=CARTESIAN_POINT('Origin',(-52.5,0.,-2.5));
#730=CARTESIAN_POINT('',(-54.,0.,0.));
#731=CARTESIAN_POINT('Origin',(-17.,0.,0.));
#732=CARTESIAN_POINT('',(-17.,0.,0.));
#733=CARTESIAN_POINT('',(-17.,0.,0.));
#734=CARTESIAN_POINT('',(-17.,0.,0.));
#735=CARTESIAN_POINT('Origin',(-20.,0.,-5.));
#736=CARTESIAN_POINT('',(-20.,0.,0.));
#737=CARTESIAN_POINT('',(-20.,0.,-5.));
#738=CARTESIAN_POINT('',(-20.,0.,0.));
#739=CARTESIAN_POINT('Origin',(-18.5,0.,-2.5));
#740=CARTESIAN_POINT('',(-20.,0.,0.));
#741=CARTESIAN_POINT('Origin',(-34.,0.,0.));
#742=CARTESIAN_POINT('',(-34.,0.,0.));
#743=CARTESIAN_POINT('',(-34.,0.,0.));
#744=CARTESIAN_POINT('',(-34.,0.,0.));
#745=CARTESIAN_POINT('Origin',(-37.,0.,0.));
#746=CARTESIAN_POINT('',(-37.,0.,0.));
#747=CARTESIAN_POINT('',(-37.,0.,0.));
#748=CARTESIAN_POINT('',(-37.,0.,0.));
#749=CARTESIAN_POINT('Origin',(-37.,0.,-5.));
#750=CARTESIAN_POINT('',(-37.,0.,-5.));
#751=CARTESIAN_POINT('Origin',(-35.5,0.,-2.5));
#752=UNCERTAINTY_MEASURE_WITH_UNIT(LENGTH_MEASURE(0.01),#756,
'DISTANCE_ACCURACY_VALUE',
'Maximum model space distance between geometric entities at asserted c
onnectivities');
#753=UNCERTAINTY_MEASURE_WITH_UNIT(LENGTH_MEASURE(0.01),#756,
'DISTANCE_ACCURACY_VALUE',
'Maximum model space distance between geometric entities at asserted c
onnectivities');
#754=(
GEOMETRIC_REPRESENTATION_CONTEXT(3)
GLOBAL_UNCERTAINTY_ASSIGNED_CONTEXT((#752))
GLOBAL_UNIT_ASSIGNED_CONTEXT((#756,#758,#759))
REPRESENTATION_CONTEXT('','3D')
);
#755=(
GEOMETRIC_REPRESENTATION_CONTEXT(3)
GLOBAL_UNCERTAINTY_ASSIGNED_CONTEXT((#753))
GLOBAL_UNIT_ASSIGNED_CONTEXT((#756,#758,#759))
REPRESENTATION_CONTEXT('','3D')
);
#756=(
LENGTH_UNIT()
NAMED_UNIT(*)
SI_UNIT(.MILLI.,.METRE.)
);
#757=(
LENGTH_UNIT()
NAMED_UNIT(*)
SI_UNIT(.CENTI.,.METRE.)
);
#758=(
NAMED_UNIT(*)
PLANE_ANGLE_UNIT()
SI_UNIT($,.RADIAN.)
);
#759=(
NAMED_UNIT(*)
SI_UNIT($,.STERADIAN.)
SOLID_ANGLE_UNIT()
);
#760=SHAPE_DEFINITION_REPRESENTATION(#761,#762);
#761=PRODUCT_DEFINITION_SHAPE('',$,#764);
#762=SHAPE_REPRESENTATION('',(#484),#754);
#763=PRODUCT_DEFINITION_CONTEXT('part definition',#768,'design');
#764=PRODUCT_DEFINITION('Bus_copper_top','Bus_copper_top',#765,#763);
#765=PRODUCT_DEFINITION_FORMATION('',$,#770);
#766=PRODUCT_RELATED_PRODUCT_CATEGORY('Bus_copper_top','Bus_copper_top',
(#770));
#767=APPLICATION_PROTOCOL_DEFINITION('international standard',
'automotive_design',2009,#768);
#768=APPLICATION_CONTEXT(
'Core Data for Automotive Mechanical Design Process');
#769=PRODUCT_CONTEXT('part definition',#768,'mechanical');
#770=PRODUCT('Bus_copper_top','Bus_copper_top',$,(#769));
#771=PRESENTATION_STYLE_ASSIGNMENT((#772));
#772=SURFACE_STYLE_USAGE(.BOTH.,#775);
#773=SURFACE_STYLE_RENDERING_WITH_PROPERTIES($,#779,(#774));
#774=SURFACE_STYLE_TRANSPARENT(0.);
#775=SURFACE_SIDE_STYLE('',(#776,#773));
#776=SURFACE_STYLE_FILL_AREA(#777);
#777=FILL_AREA_STYLE('',(#778));
#778=FILL_AREA_STYLE_COLOUR('',#779);
#779=COLOUR_RGB('',0.737254901960784,0.313725490196078,0.184313725490196);
ENDSEC;
END-ISO-10303-21;
