ISO-10303-21;
HEADER;
/* Generated by software containing ST-Developer
 * from STEP Tools, Inc. (www.steptools.com) 
 */

FILE_DESCRIPTION(
/* description */ (''),
/* implementation_level */ '2;1');

FILE_NAME(
/* name */ 'Bus_copper_top.stp',
/* time_stamp */ '2025-12-09T12:40:45+03:00',
/* author */ ('EV-TECH'),
/* organization */ (''),
/* preprocessor_version */ 'ST-DEVELOPER v20.1',
/* originating_system */ 'Autodesk Inventor 2026',
/* authorisation */ '');

FILE_SCHEMA (('AUTOMOTIVE_DESIGN { 1 0 10303 214 3 1 1 }'));
ENDSEC;

DATA;
#10=MECHANICAL_DESIGN_GEOMETRIC_PRESENTATION_REPRESENTATION('',(#13),#654);
#11=SHAPE_REPRESENTATION_RELATIONSHIP('SRR','None',#661,#12);
#12=ADVANCED_BREP_SHAPE_REPRESENTATION('',(#14),#653);
#13=STYLED_ITEM('',(#670),#14);
#14=MANIFOLD_SOLID_BREP('\X2\04220432043504400434043E0435\X0\ \X2\04420435043B043E\X0\1',
#401);
#15=FACE_OUTER_BOUND('',#35,.T.);
#16=FACE_OUTER_BOUND('',#36,.T.);
#17=FACE_OUTER_BOUND('',#37,.T.);
#18=FACE_OUTER_BOUND('',#38,.T.);
#19=FACE_OUTER_BOUND('',#39,.T.);
#20=FACE_OUTER_BOUND('',#40,.T.);
#21=FACE_OUTER_BOUND('',#41,.T.);
#22=FACE_OUTER_BOUND('',#42,.T.);
#23=FACE_OUTER_BOUND('',#43,.T.);
#24=FACE_OUTER_BOUND('',#44,.T.);
#25=FACE_OUTER_BOUND('',#45,.T.);
#26=FACE_OUTER_BOUND('',#46,.T.);
#27=FACE_OUTER_BOUND('',#47,.T.);
#28=FACE_OUTER_BOUND('',#48,.T.);
#29=FACE_OUTER_BOUND('',#49,.T.);
#30=FACE_OUTER_BOUND('',#50,.T.);
#31=FACE_OUTER_BOUND('',#51,.T.);
#32=FACE_OUTER_BOUND('',#52,.T.);
#33=FACE_OUTER_BOUND('',#53,.T.);
#34=FACE_OUTER_BOUND('',#54,.T.);
#35=EDGE_LOOP('',(#253,#254,#255,#256));
#36=EDGE_LOOP('',(#257,#258,#259,#260));
#37=EDGE_LOOP('',(#261,#262,#263,#264));
#38=EDGE_LOOP('',(#265,#266,#267,#268));
#39=EDGE_LOOP('',(#269,#270,#271,#272));
#40=EDGE_LOOP('',(#273,#274,#275,#276));
#41=EDGE_LOOP('',(#277,#278,#279,#280));
#42=EDGE_LOOP('',(#281,#282,#283,#284));
#43=EDGE_LOOP('',(#285,#286,#287,#288));
#44=EDGE_LOOP('',(#289,#290,#291,#292));
#45=EDGE_LOOP('',(#293,#294,#295,#296));
#46=EDGE_LOOP('',(#297,#298,#299,#300));
#47=EDGE_LOOP('',(#301,#302,#303,#304));
#48=EDGE_LOOP('',(#305,#306,#307,#308));
#49=EDGE_LOOP('',(#309,#310,#311,#312));
#50=EDGE_LOOP('',(#313,#314,#315,#316));
#51=EDGE_LOOP('',(#317,#318,#319,#320,#321,#322,#323,#324,#325,#326,#327,
#328,#329,#330,#331,#332,#333,#334));
#52=EDGE_LOOP('',(#335,#336,#337,#338));
#53=EDGE_LOOP('',(#339,#340,#341,#342,#343,#344,#345,#346,#347,#348,#349,
#350,#351,#352,#353,#354,#355,#356));
#54=EDGE_LOOP('',(#357,#358,#359,#360));
#55=LINE('',#544,#109);
#56=LINE('',#546,#110);
#57=LINE('',#548,#111);
#58=LINE('',#549,#112);
#59=LINE('',#553,#113);
#60=LINE('',#555,#114);
#61=LINE('',#557,#115);
#62=LINE('',#558,#116);
#63=LINE('',#562,#117);
#64=LINE('',#564,#118);
#65=LINE('',#566,#119);
#66=LINE('',#567,#120);
#67=LINE('',#571,#121);
#68=LINE('',#573,#122);
#69=LINE('',#575,#123);
#70=LINE('',#576,#124);
#71=LINE('',#579,#125);
#72=LINE('',#581,#126);
#73=LINE('',#582,#127);
#74=LINE('',#585,#128);
#75=LINE('',#587,#129);
#76=LINE('',#588,#130);
#77=LINE('',#592,#131);
#78=LINE('',#593,#132);
#79=LINE('',#594,#133);
#80=LINE('',#598,#134);
#81=LINE('',#599,#135);
#82=LINE('',#600,#136);
#83=LINE('',#602,#137);
#84=LINE('',#603,#138);
#85=LINE('',#607,#139);
#86=LINE('',#608,#140);
#87=LINE('',#609,#141);
#88=LINE('',#613,#142);
#89=LINE('',#614,#143);
#90=LINE('',#615,#144);
#91=LINE('',#617,#145);
#92=LINE('',#618,#146);
#93=LINE('',#622,#147);
#94=LINE('',#623,#148);
#95=LINE('',#624,#149);
#96=LINE('',#628,#150);
#97=LINE('',#629,#151);
#98=LINE('',#630,#152);
#99=LINE('',#632,#153);
#100=LINE('',#633,#154);
#101=LINE('',#637,#155);
#102=LINE('',#638,#156);
#103=LINE('',#639,#157);
#104=LINE('',#642,#158);
#105=LINE('',#643,#159);
#106=LINE('',#646,#160);
#107=LINE('',#647,#161);
#108=LINE('',#649,#162);
#109=VECTOR('',#448,10.);
#110=VECTOR('',#449,10.);
#111=VECTOR('',#450,10.);
#112=VECTOR('',#451,10.);
#113=VECTOR('',#454,10.);
#114=VECTOR('',#455,10.);
#115=VECTOR('',#456,10.);
#116=VECTOR('',#457,10.);
#117=VECTOR('',#460,10.);
#118=VECTOR('',#461,10.);
#119=VECTOR('',#462,10.);
#120=VECTOR('',#463,10.);
#121=VECTOR('',#466,10.);
#122=VECTOR('',#467,10.);
#123=VECTOR('',#468,10.);
#124=VECTOR('',#469,10.);
#125=VECTOR('',#472,10.);
#126=VECTOR('',#473,10.);
#127=VECTOR('',#474,10.);
#128=VECTOR('',#477,10.);
#129=VECTOR('',#478,10.);
#130=VECTOR('',#479,10.);
#131=VECTOR('',#482,10.);
#132=VECTOR('',#483,10.);
#133=VECTOR('',#484,10.);
#134=VECTOR('',#487,10.);
#135=VECTOR('',#488,10.);
#136=VECTOR('',#489,10.);
#137=VECTOR('',#492,10.);
#138=VECTOR('',#493,10.);
#139=VECTOR('',#496,10.);
#140=VECTOR('',#497,10.);
#141=VECTOR('',#498,10.);
#142=VECTOR('',#501,10.);
#143=VECTOR('',#502,10.);
#144=VECTOR('',#503,10.);
#145=VECTOR('',#506,10.);
#146=VECTOR('',#507,10.);
#147=VECTOR('',#510,10.);
#148=VECTOR('',#511,10.);
#149=VECTOR('',#512,10.);
#150=VECTOR('',#515,10.);
#151=VECTOR('',#516,10.);
#152=VECTOR('',#517,10.);
#153=VECTOR('',#520,10.);
#154=VECTOR('',#521,10.);
#155=VECTOR('',#524,10.);
#156=VECTOR('',#525,10.);
#157=VECTOR('',#526,10.);
#158=VECTOR('',#529,10.);
#159=VECTOR('',#530,10.);
#160=VECTOR('',#533,10.);
#161=VECTOR('',#534,10.);
#162=VECTOR('',#537,10.);
#163=VERTEX_POINT('',#542);
#164=VERTEX_POINT('',#543);
#165=VERTEX_POINT('',#545);
#166=VERTEX_POINT('',#547);
#167=VERTEX_POINT('',#551);
#168=VERTEX_POINT('',#552);
#169=VERTEX_POINT('',#554);
#170=VERTEX_POINT('',#556);
#171=VERTEX_POINT('',#560);
#172=VERTEX_POINT('',#561);
#173=VERTEX_POINT('',#563);
#174=VERTEX_POINT('',#565);
#175=VERTEX_POINT('',#569);
#176=VERTEX_POINT('',#570);
#177=VERTEX_POINT('',#572);
#178=VERTEX_POINT('',#574);
#179=VERTEX_POINT('',#578);
#180=VERTEX_POINT('',#580);
#181=VERTEX_POINT('',#584);
#182=VERTEX_POINT('',#586);
#183=VERTEX_POINT('',#590);
#184=VERTEX_POINT('',#591);
#185=VERTEX_POINT('',#596);
#186=VERTEX_POINT('',#597);
#187=VERTEX_POINT('',#605);
#188=VERTEX_POINT('',#606);
#189=VERTEX_POINT('',#611);
#190=VERTEX_POINT('',#612);
#191=VERTEX_POINT('',#620);
#192=VERTEX_POINT('',#621);
#193=VERTEX_POINT('',#626);
#194=VERTEX_POINT('',#627);
#195=VERTEX_POINT('',#635);
#196=VERTEX_POINT('',#636);
#197=VERTEX_POINT('',#641);
#198=VERTEX_POINT('',#645);
#199=EDGE_CURVE('',#163,#164,#55,.T.);
#200=EDGE_CURVE('',#165,#164,#56,.T.);
#201=EDGE_CURVE('',#166,#165,#57,.T.);
#202=EDGE_CURVE('',#163,#166,#58,.T.);
#203=EDGE_CURVE('',#167,#168,#59,.T.);
#204=EDGE_CURVE('',#169,#168,#60,.T.);
#205=EDGE_CURVE('',#169,#170,#61,.T.);
#206=EDGE_CURVE('',#167,#170,#62,.T.);
#207=EDGE_CURVE('',#171,#172,#63,.T.);
#208=EDGE_CURVE('',#173,#172,#64,.T.);
#209=EDGE_CURVE('',#173,#174,#65,.T.);
#210=EDGE_CURVE('',#171,#174,#66,.T.);
#211=EDGE_CURVE('',#175,#176,#67,.T.);
#212=EDGE_CURVE('',#177,#176,#68,.T.);
#213=EDGE_CURVE('',#177,#178,#69,.T.);
#214=EDGE_CURVE('',#175,#178,#70,.T.);
#215=EDGE_CURVE('',#165,#179,#71,.T.);
#216=EDGE_CURVE('',#180,#179,#72,.T.);
#217=EDGE_CURVE('',#166,#180,#73,.T.);
#218=EDGE_CURVE('',#181,#180,#74,.T.);
#219=EDGE_CURVE('',#179,#182,#75,.T.);
#220=EDGE_CURVE('',#182,#181,#76,.T.);
#221=EDGE_CURVE('',#183,#184,#77,.T.);
#222=EDGE_CURVE('',#184,#181,#78,.T.);
#223=EDGE_CURVE('',#183,#182,#79,.T.);
#224=EDGE_CURVE('',#185,#186,#80,.T.);
#225=EDGE_CURVE('',#186,#170,#81,.T.);
#226=EDGE_CURVE('',#185,#169,#82,.T.);
#227=EDGE_CURVE('',#184,#185,#83,.T.);
#228=EDGE_CURVE('',#186,#183,#84,.T.);
#229=EDGE_CURVE('',#187,#188,#85,.T.);
#230=EDGE_CURVE('',#188,#174,#86,.T.);
#231=EDGE_CURVE('',#187,#173,#87,.T.);
#232=EDGE_CURVE('',#189,#190,#88,.T.);
#233=EDGE_CURVE('',#190,#164,#89,.T.);
#234=EDGE_CURVE('',#189,#163,#90,.T.);
#235=EDGE_CURVE('',#188,#189,#91,.T.);
#236=EDGE_CURVE('',#190,#187,#92,.T.);
#237=EDGE_CURVE('',#191,#192,#93,.T.);
#238=EDGE_CURVE('',#192,#168,#94,.T.);
#239=EDGE_CURVE('',#191,#167,#95,.T.);
#240=EDGE_CURVE('',#193,#194,#96,.T.);
#241=EDGE_CURVE('',#194,#178,#97,.T.);
#242=EDGE_CURVE('',#193,#177,#98,.T.);
#243=EDGE_CURVE('',#192,#193,#99,.T.);
#244=EDGE_CURVE('',#194,#191,#100,.T.);
#245=EDGE_CURVE('',#195,#196,#101,.T.);
#246=EDGE_CURVE('',#196,#176,#102,.T.);
#247=EDGE_CURVE('',#195,#175,#103,.T.);
#248=EDGE_CURVE('',#197,#195,#104,.T.);
#249=EDGE_CURVE('',#197,#172,#105,.T.);
#250=EDGE_CURVE('',#198,#197,#106,.T.);
#251=EDGE_CURVE('',#198,#171,#107,.T.);
#252=EDGE_CURVE('',#196,#198,#108,.T.);
#253=ORIENTED_EDGE('',*,*,#199,.T.);
#254=ORIENTED_EDGE('',*,*,#200,.F.);
#255=ORIENTED_EDGE('',*,*,#201,.F.);
#256=ORIENTED_EDGE('',*,*,#202,.F.);
#257=ORIENTED_EDGE('',*,*,#203,.T.);
#258=ORIENTED_EDGE('',*,*,#204,.F.);
#259=ORIENTED_EDGE('',*,*,#205,.T.);
#260=ORIENTED_EDGE('',*,*,#206,.F.);
#261=ORIENTED_EDGE('',*,*,#207,.T.);
#262=ORIENTED_EDGE('',*,*,#208,.F.);
#263=ORIENTED_EDGE('',*,*,#209,.T.);
#264=ORIENTED_EDGE('',*,*,#210,.F.);
#265=ORIENTED_EDGE('',*,*,#211,.T.);
#266=ORIENTED_EDGE('',*,*,#212,.F.);
#267=ORIENTED_EDGE('',*,*,#213,.T.);
#268=ORIENTED_EDGE('',*,*,#214,.F.);
#269=ORIENTED_EDGE('',*,*,#201,.T.);
#270=ORIENTED_EDGE('',*,*,#215,.T.);
#271=ORIENTED_EDGE('',*,*,#216,.F.);
#272=ORIENTED_EDGE('',*,*,#217,.F.);
#273=ORIENTED_EDGE('',*,*,#218,.T.);
#274=ORIENTED_EDGE('',*,*,#216,.T.);
#275=ORIENTED_EDGE('',*,*,#219,.T.);
#276=ORIENTED_EDGE('',*,*,#220,.T.);
#277=ORIENTED_EDGE('',*,*,#221,.T.);
#278=ORIENTED_EDGE('',*,*,#222,.T.);
#279=ORIENTED_EDGE('',*,*,#220,.F.);
#280=ORIENTED_EDGE('',*,*,#223,.F.);
#281=ORIENTED_EDGE('',*,*,#224,.T.);
#282=ORIENTED_EDGE('',*,*,#225,.T.);
#283=ORIENTED_EDGE('',*,*,#205,.F.);
#284=ORIENTED_EDGE('',*,*,#226,.F.);
#285=ORIENTED_EDGE('',*,*,#227,.F.);
#286=ORIENTED_EDGE('',*,*,#221,.F.);
#287=ORIENTED_EDGE('',*,*,#228,.F.);
#288=ORIENTED_EDGE('',*,*,#224,.F.);
#289=ORIENTED_EDGE('',*,*,#229,.T.);
#290=ORIENTED_EDGE('',*,*,#230,.T.);
#291=ORIENTED_EDGE('',*,*,#209,.F.);
#292=ORIENTED_EDGE('',*,*,#231,.F.);
#293=ORIENTED_EDGE('',*,*,#232,.T.);
#294=ORIENTED_EDGE('',*,*,#233,.T.);
#295=ORIENTED_EDGE('',*,*,#199,.F.);
#296=ORIENTED_EDGE('',*,*,#234,.F.);
#297=ORIENTED_EDGE('',*,*,#235,.F.);
#298=ORIENTED_EDGE('',*,*,#229,.F.);
#299=ORIENTED_EDGE('',*,*,#236,.F.);
#300=ORIENTED_EDGE('',*,*,#232,.F.);
#301=ORIENTED_EDGE('',*,*,#237,.T.);
#302=ORIENTED_EDGE('',*,*,#238,.T.);
#303=ORIENTED_EDGE('',*,*,#203,.F.);
#304=ORIENTED_EDGE('',*,*,#239,.F.);
#305=ORIENTED_EDGE('',*,*,#240,.T.);
#306=ORIENTED_EDGE('',*,*,#241,.T.);
#307=ORIENTED_EDGE('',*,*,#213,.F.);
#308=ORIENTED_EDGE('',*,*,#242,.F.);
#309=ORIENTED_EDGE('',*,*,#243,.F.);
#310=ORIENTED_EDGE('',*,*,#237,.F.);
#311=ORIENTED_EDGE('',*,*,#244,.F.);
#312=ORIENTED_EDGE('',*,*,#240,.F.);
#313=ORIENTED_EDGE('',*,*,#245,.T.);
#314=ORIENTED_EDGE('',*,*,#246,.T.);
#315=ORIENTED_EDGE('',*,*,#211,.F.);
#316=ORIENTED_EDGE('',*,*,#247,.F.);
#317=ORIENTED_EDGE('',*,*,#248,.T.);
#318=ORIENTED_EDGE('',*,*,#247,.T.);
#319=ORIENTED_EDGE('',*,*,#214,.T.);
#320=ORIENTED_EDGE('',*,*,#241,.F.);
#321=ORIENTED_EDGE('',*,*,#244,.T.);
#322=ORIENTED_EDGE('',*,*,#239,.T.);
#323=ORIENTED_EDGE('',*,*,#206,.T.);
#324=ORIENTED_EDGE('',*,*,#225,.F.);
#325=ORIENTED_EDGE('',*,*,#228,.T.);
#326=ORIENTED_EDGE('',*,*,#223,.T.);
#327=ORIENTED_EDGE('',*,*,#219,.F.);
#328=ORIENTED_EDGE('',*,*,#215,.F.);
#329=ORIENTED_EDGE('',*,*,#200,.T.);
#330=ORIENTED_EDGE('',*,*,#233,.F.);
#331=ORIENTED_EDGE('',*,*,#236,.T.);
#332=ORIENTED_EDGE('',*,*,#231,.T.);
#333=ORIENTED_EDGE('',*,*,#208,.T.);
#334=ORIENTED_EDGE('',*,*,#249,.F.);
#335=ORIENTED_EDGE('',*,*,#250,.T.);
#336=ORIENTED_EDGE('',*,*,#249,.T.);
#337=ORIENTED_EDGE('',*,*,#207,.F.);
#338=ORIENTED_EDGE('',*,*,#251,.F.);
#339=ORIENTED_EDGE('',*,*,#252,.T.);
#340=ORIENTED_EDGE('',*,*,#251,.T.);
#341=ORIENTED_EDGE('',*,*,#210,.T.);
#342=ORIENTED_EDGE('',*,*,#230,.F.);
#343=ORIENTED_EDGE('',*,*,#235,.T.);
#344=ORIENTED_EDGE('',*,*,#234,.T.);
#345=ORIENTED_EDGE('',*,*,#202,.T.);
#346=ORIENTED_EDGE('',*,*,#217,.T.);
#347=ORIENTED_EDGE('',*,*,#218,.F.);
#348=ORIENTED_EDGE('',*,*,#222,.F.);
#349=ORIENTED_EDGE('',*,*,#227,.T.);
#350=ORIENTED_EDGE('',*,*,#226,.T.);
#351=ORIENTED_EDGE('',*,*,#204,.T.);
#352=ORIENTED_EDGE('',*,*,#238,.F.);
#353=ORIENTED_EDGE('',*,*,#243,.T.);
#354=ORIENTED_EDGE('',*,*,#242,.T.);
#355=ORIENTED_EDGE('',*,*,#212,.T.);
#356=ORIENTED_EDGE('',*,*,#246,.F.);
#357=ORIENTED_EDGE('',*,*,#252,.F.);
#358=ORIENTED_EDGE('',*,*,#245,.F.);
#359=ORIENTED_EDGE('',*,*,#248,.F.);
#360=ORIENTED_EDGE('',*,*,#250,.F.);
#361=PLANE('',#424);
#362=PLANE('',#425);
#363=PLANE('',#426);
#364=PLANE('',#427);
#365=PLANE('',#428);
#366=PLANE('',#429);
#367=PLANE('',#430);
#368=PLANE('',#431);
#369=PLANE('',#432);
#370=PLANE('',#433);
#371=PLANE('',#434);
#372=PLANE('',#435);
#373=PLANE('',#436);
#374=PLANE('',#437);
#375=PLANE('',#438);
#376=PLANE('',#439);
#377=PLANE('',#440);
#378=PLANE('',#441);
#379=PLANE('',#442);
#380=PLANE('',#443);
#381=ADVANCED_FACE('',(#15),#361,.F.);
#382=ADVANCED_FACE('',(#16),#362,.F.);
#383=ADVANCED_FACE('',(#17),#363,.F.);
#384=ADVANCED_FACE('',(#18),#364,.F.);
#385=ADVANCED_FACE('',(#19),#365,.T.);
#386=ADVANCED_FACE('',(#20),#366,.T.);
#387=ADVANCED_FACE('',(#21),#367,.T.);
#388=ADVANCED_FACE('',(#22),#368,.T.);
#389=ADVANCED_FACE('',(#23),#369,.F.);
#390=ADVANCED_FACE('',(#24),#370,.T.);
#391=ADVANCED_FACE('',(#25),#371,.T.);
#392=ADVANCED_FACE('',(#26),#372,.F.);
#393=ADVANCED_FACE('',(#27),#373,.T.);
#394=ADVANCED_FACE('',(#28),#374,.T.);
#395=ADVANCED_FACE('',(#29),#375,.F.);
#396=ADVANCED_FACE('',(#30),#376,.T.);
#397=ADVANCED_FACE('',(#31),#377,.T.);
#398=ADVANCED_FACE('',(#32),#378,.T.);
#399=ADVANCED_FACE('',(#33),#379,.T.);
#400=ADVANCED_FACE('',(#34),#380,.F.);
#401=CLOSED_SHELL('',(#381,#382,#383,#384,#385,#386,#387,#388,#389,#390,
#391,#392,#393,#394,#395,#396,#397,#398,#399,#400));
#402=DERIVED_UNIT_ELEMENT(#405,1.);
#403=DERIVED_UNIT_ELEMENT(#656,-3.);
#404=DIMENSIONAL_EXPONENTS(0.,1.,0.,0.,0.,0.,0.);
#405=(
CONVERSION_BASED_UNIT('gram',#407)
MASS_UNIT()
NAMED_UNIT(#404)
);
#406=(
MASS_UNIT()
NAMED_UNIT(*)
SI_UNIT(.KILO.,.GRAM.)
);
#407=MASS_MEASURE_WITH_UNIT(MASS_MEASURE(0.001),#406);
#408=DERIVED_UNIT((#402,#403));
#409=MEASURE_REPRESENTATION_ITEM('density measure',
POSITIVE_RATIO_MEASURE(8.94),#408);
#410=PROPERTY_DEFINITION_REPRESENTATION(#415,#412);
#411=PROPERTY_DEFINITION_REPRESENTATION(#416,#413);
#412=REPRESENTATION('material name',(#414),#653);
#413=REPRESENTATION('density',(#409),#653);
#414=DESCRIPTIVE_REPRESENTATION_ITEM('\X2\041C04350434044C\X0\',
'\X2\041C04350434044C\X0\');
#415=PROPERTY_DEFINITION('material property','material name',#663);
#416=PROPERTY_DEFINITION('material property','density of part',#663);
#417=DATE_TIME_ROLE('creation_date');
#418=APPLIED_DATE_AND_TIME_ASSIGNMENT(#419,#417,(#663));
#419=DATE_AND_TIME(#420,#421);
#420=CALENDAR_DATE(2025,9,12);
#421=LOCAL_TIME(0,0,0.,#422);
#422=COORDINATED_UNIVERSAL_TIME_OFFSET(0,0,.BEHIND.);
#423=AXIS2_PLACEMENT_3D('',#540,#444,#445);
#424=AXIS2_PLACEMENT_3D('',#541,#446,#447);
#425=AXIS2_PLACEMENT_3D('',#550,#452,#453);
#426=AXIS2_PLACEMENT_3D('',#559,#458,#459);
#427=AXIS2_PLACEMENT_3D('',#568,#464,#465);
#428=AXIS2_PLACEMENT_3D('',#577,#470,#471);
#429=AXIS2_PLACEMENT_3D('',#583,#475,#476);
#430=AXIS2_PLACEMENT_3D('',#589,#480,#481);
#431=AXIS2_PLACEMENT_3D('',#595,#485,#486);
#432=AXIS2_PLACEMENT_3D('',#601,#490,#491);
#433=AXIS2_PLACEMENT_3D('',#604,#494,#495);
#434=AXIS2_PLACEMENT_3D('',#610,#499,#500);
#435=AXIS2_PLACEMENT_3D('',#616,#504,#505);
#436=AXIS2_PLACEMENT_3D('',#619,#508,#509);
#437=AXIS2_PLACEMENT_3D('',#625,#513,#514);
#438=AXIS2_PLACEMENT_3D('',#631,#518,#519);
#439=AXIS2_PLACEMENT_3D('',#634,#522,#523);
#440=AXIS2_PLACEMENT_3D('',#640,#527,#528);
#441=AXIS2_PLACEMENT_3D('',#644,#531,#532);
#442=AXIS2_PLACEMENT_3D('',#648,#535,#536);
#443=AXIS2_PLACEMENT_3D('',#650,#538,#539);
#444=DIRECTION('axis',(0.,0.,1.));
#445=DIRECTION('refdir',(1.,0.,0.));
#446=DIRECTION('center_axis',(0.,1.,0.));
#447=DIRECTION('ref_axis',(0.,0.,1.));
#448=DIRECTION('',(0.,0.,1.));
#449=DIRECTION('',(1.,0.,1.87537673078577E-18));
#450=DIRECTION('',(0.,0.,1.));
#451=DIRECTION('',(-1.,0.,0.));
#452=DIRECTION('center_axis',(0.,1.,0.));
#453=DIRECTION('ref_axis',(0.,0.,1.));
#454=DIRECTION('',(-4.44089209850063E-16,0.,-1.));
#455=DIRECTION('',(-1.,0.,0.));
#456=DIRECTION('',(2.22044604925031E-16,0.,1.));
#457=DIRECTION('',(1.,0.,1.87537673078577E-18));
#458=DIRECTION('center_axis',(0.,1.,0.));
#459=DIRECTION('ref_axis',(0.,0.,1.));
#460=DIRECTION('',(0.,0.,1.));
#461=DIRECTION('',(1.,0.,1.87537673078577E-18));
#462=DIRECTION('',(0.,0.,-1.));
#463=DIRECTION('',(-1.,0.,0.));
#464=DIRECTION('center_axis',(0.,1.,0.));
#465=DIRECTION('ref_axis',(0.,0.,1.));
#466=DIRECTION('',(0.,0.,-1.));
#467=DIRECTION('',(-1.,0.,0.));
#468=DIRECTION('',(0.,0.,1.));
#469=DIRECTION('',(1.,0.,1.87537673078577E-18));
#470=DIRECTION('center_axis',(-1.,0.,0.));
#471=DIRECTION('ref_axis',(0.,0.,1.));
#472=DIRECTION('',(0.,1.,0.));
#473=DIRECTION('',(0.,0.,1.));
#474=DIRECTION('',(0.,1.,0.));
#475=DIRECTION('center_axis',(0.,1.,0.));
#476=DIRECTION('ref_axis',(0.,0.,1.));
#477=DIRECTION('',(-1.,0.,0.));
#478=DIRECTION('',(1.,0.,1.87537673078577E-18));
#479=DIRECTION('',(0.,0.,-1.));
#480=DIRECTION('center_axis',(1.,0.,-2.22044604925031E-16));
#481=DIRECTION('ref_axis',(-2.22044604925031E-16,0.,-1.));
#482=DIRECTION('',(-2.22044604925031E-16,0.,-1.));
#483=DIRECTION('',(0.,1.,0.));
#484=DIRECTION('',(0.,1.,0.));
#485=DIRECTION('center_axis',(-1.,0.,2.22044604925031E-16));
#486=DIRECTION('ref_axis',(2.22044604925031E-16,0.,1.));
#487=DIRECTION('',(2.22044604925031E-16,0.,1.));
#488=DIRECTION('',(0.,1.,0.));
#489=DIRECTION('',(0.,1.,0.));
#490=DIRECTION('center_axis',(0.,1.,0.));
#491=DIRECTION('ref_axis',(0.,0.,1.));
#492=DIRECTION('',(-1.,0.,0.));
#493=DIRECTION('',(1.,0.,0.));
#494=DIRECTION('center_axis',(1.,0.,0.));
#495=DIRECTION('ref_axis',(0.,0.,-1.));
#496=DIRECTION('',(0.,0.,-1.));
#497=DIRECTION('',(0.,1.,0.));
#498=DIRECTION('',(0.,1.,0.));
#499=DIRECTION('center_axis',(-1.,0.,0.));
#500=DIRECTION('ref_axis',(0.,0.,1.));
#501=DIRECTION('',(0.,0.,1.));
#502=DIRECTION('',(0.,1.,0.));
#503=DIRECTION('',(0.,1.,0.));
#504=DIRECTION('center_axis',(0.,1.,0.));
#505=DIRECTION('ref_axis',(0.,0.,1.));
#506=DIRECTION('',(-1.,0.,0.));
#507=DIRECTION('',(1.,0.,0.));
#508=DIRECTION('center_axis',(1.,0.,-4.44089209850063E-16));
#509=DIRECTION('ref_axis',(-4.44089209850063E-16,0.,-1.));
#510=DIRECTION('',(-4.44089209850063E-16,0.,-1.));
#511=DIRECTION('',(0.,1.,0.));
#512=DIRECTION('',(0.,1.,0.));
#513=DIRECTION('center_axis',(-1.,0.,0.));
#514=DIRECTION('ref_axis',(0.,0.,1.));
#515=DIRECTION('',(0.,0.,1.));
#516=DIRECTION('',(0.,1.,0.));
#517=DIRECTION('',(0.,1.,0.));
#518=DIRECTION('center_axis',(0.,1.,0.));
#519=DIRECTION('ref_axis',(0.,0.,1.));
#520=DIRECTION('',(-1.,0.,-3.70074341541719E-16));
#521=DIRECTION('',(1.,0.,0.));
#522=DIRECTION('center_axis',(1.,0.,0.));
#523=DIRECTION('ref_axis',(0.,0.,-1.));
#524=DIRECTION('',(0.,0.,-1.));
#525=DIRECTION('',(0.,1.,0.));
#526=DIRECTION('',(0.,1.,0.));
#527=DIRECTION('center_axis',(0.,0.,1.));
#528=DIRECTION('ref_axis',(1.,0.,0.));
#529=DIRECTION('',(1.,0.,0.));
#530=DIRECTION('',(0.,1.,0.));
#531=DIRECTION('center_axis',(-1.,0.,0.));
#532=DIRECTION('ref_axis',(0.,0.,1.));
#533=DIRECTION('',(0.,0.,1.));
#534=DIRECTION('',(0.,1.,0.));
#535=DIRECTION('center_axis',(0.,0.,-1.));
#536=DIRECTION('ref_axis',(-1.,0.,0.));
#537=DIRECTION('',(-1.,0.,0.));
#538=DIRECTION('center_axis',(0.,1.,0.));
#539=DIRECTION('ref_axis',(0.,0.,1.));
#540=CARTESIAN_POINT('',(0.,0.,0.));
#541=CARTESIAN_POINT('Origin',(-37.,2.,-2.5));
#542=CARTESIAN_POINT('',(-54.,2.,-5.));
#543=CARTESIAN_POINT('',(-54.,2.,0.));
#544=CARTESIAN_POINT('',(-54.,2.,-5.));
#545=CARTESIAN_POINT('',(-74.,2.,-1.38777878078147E-16));
#546=CARTESIAN_POINT('',(-74.,2.,-1.38777878078147E-16));
#547=CARTESIAN_POINT('',(-74.,2.,-5.));
#548=CARTESIAN_POINT('',(-74.,2.,-5.));
#549=CARTESIAN_POINT('',(0.,2.,-5.));
#550=CARTESIAN_POINT('Origin',(-37.,2.,-2.5));
#551=CARTESIAN_POINT('',(-17.,2.,0.));
#552=CARTESIAN_POINT('',(-17.,2.,-5.));
#553=CARTESIAN_POINT('',(-17.,2.,0.));
#554=CARTESIAN_POINT('',(-3.,2.,-5.));
#555=CARTESIAN_POINT('',(0.,2.,-5.));
#556=CARTESIAN_POINT('',(-3.,2.,0.));
#557=CARTESIAN_POINT('',(-3.,2.,-5.));
#558=CARTESIAN_POINT('',(-74.,2.,-1.38777878078147E-16));
#559=CARTESIAN_POINT('Origin',(-37.,2.,-2.5));
#560=CARTESIAN_POINT('',(-37.,2.,-5.));
#561=CARTESIAN_POINT('',(-37.,2.,0.));
#562=CARTESIAN_POINT('',(-37.,2.,-5.));
#563=CARTESIAN_POINT('',(-51.,2.,0.));
#564=CARTESIAN_POINT('',(-74.,2.,-1.38777878078147E-16));
#565=CARTESIAN_POINT('',(-51.,2.,-5.));
#566=CARTESIAN_POINT('',(-51.,2.,0.));
#567=CARTESIAN_POINT('',(0.,2.,-5.));
#568=CARTESIAN_POINT('Origin',(-37.,2.,-2.5));
#569=CARTESIAN_POINT('',(-34.,2.,0.));
#570=CARTESIAN_POINT('',(-34.,2.,-5.));
#571=CARTESIAN_POINT('',(-34.,2.,0.));
#572=CARTESIAN_POINT('',(-20.,2.,-5.));
#573=CARTESIAN_POINT('',(0.,2.,-5.));
#574=CARTESIAN_POINT('',(-20.,2.,0.));
#575=CARTESIAN_POINT('',(-20.,2.,-5.));
#576=CARTESIAN_POINT('',(-74.,2.,-1.38777878078147E-16));
#577=CARTESIAN_POINT('Origin',(-74.,2.,-5.));
#578=CARTESIAN_POINT('',(-74.,7.,0.));
#579=CARTESIAN_POINT('',(-74.,2.,-1.38777878078147E-16));
#580=CARTESIAN_POINT('',(-74.,7.,-5.));
#581=CARTESIAN_POINT('',(-74.,7.,-5.));
#582=CARTESIAN_POINT('',(-74.,2.,-5.));
#583=CARTESIAN_POINT('Origin',(-37.,7.,-2.5));
#584=CARTESIAN_POINT('',(0.,7.,-5.));
#585=CARTESIAN_POINT('',(0.,7.,-5.));
#586=CARTESIAN_POINT('',(0.,7.,0.));
#587=CARTESIAN_POINT('',(-74.,7.,-1.38777878078147E-16));
#588=CARTESIAN_POINT('',(0.,7.,0.));
#589=CARTESIAN_POINT('Origin',(0.,0.,0.));
#590=CARTESIAN_POINT('',(0.,0.,0.));
#591=CARTESIAN_POINT('',(-1.11022302462516E-15,0.,-5.));
#592=CARTESIAN_POINT('',(0.,0.,0.));
#593=CARTESIAN_POINT('',(-1.11022302462516E-15,0.,-5.));
#594=CARTESIAN_POINT('',(0.,0.,0.));
#595=CARTESIAN_POINT('Origin',(-3.,0.,-5.));
#596=CARTESIAN_POINT('',(-3.,0.,-5.));
#597=CARTESIAN_POINT('',(-3.,0.,0.));
#598=CARTESIAN_POINT('',(-3.,0.,-5.));
#599=CARTESIAN_POINT('',(-3.,0.,0.));
#600=CARTESIAN_POINT('',(-3.,0.,-5.));
#601=CARTESIAN_POINT('Origin',(-1.5,0.,-2.5));
#602=CARTESIAN_POINT('',(-1.11022302462516E-15,0.,-5.));
#603=CARTESIAN_POINT('',(-3.,0.,0.));
#604=CARTESIAN_POINT('Origin',(-51.,0.,0.));
#605=CARTESIAN_POINT('',(-51.,0.,0.));
#606=CARTESIAN_POINT('',(-51.,0.,-5.));
#607=CARTESIAN_POINT('',(-51.,0.,0.));
#608=CARTESIAN_POINT('',(-51.,0.,-5.));
#609=CARTESIAN_POINT('',(-51.,0.,0.));
#610=CARTESIAN_POINT('Origin',(-54.,0.,-5.));
#611=CARTESIAN_POINT('',(-54.,0.,-5.));
#612=CARTESIAN_POINT('',(-54.,0.,0.));
#613=CARTESIAN_POINT('',(-54.,0.,-5.));
#614=CARTESIAN_POINT('',(-54.,0.,0.));
#615=CARTESIAN_POINT('',(-54.,0.,-5.));
#616=CARTESIAN_POINT('Origin',(-52.5,0.,-2.5));
#617=CARTESIAN_POINT('',(-51.,0.,-5.));
#618=CARTESIAN_POINT('',(-54.,0.,0.));
#619=CARTESIAN_POINT('Origin',(-17.,0.,0.));
#620=CARTESIAN_POINT('',(-17.,0.,0.));
#621=CARTESIAN_POINT('',(-17.,0.,-5.));
#622=CARTESIAN_POINT('',(-17.,0.,0.));
#623=CARTESIAN_POINT('',(-17.,0.,-5.));
#624=CARTESIAN_POINT('',(-17.,0.,0.));
#625=CARTESIAN_POINT('Origin',(-20.,0.,-5.));
#626=CARTESIAN_POINT('',(-20.,0.,-5.));
#627=CARTESIAN_POINT('',(-20.,0.,0.));
#628=CARTESIAN_POINT('',(-20.,0.,-5.));
#629=CARTESIAN_POINT('',(-20.,0.,0.));
#630=CARTESIAN_POINT('',(-20.,0.,-5.));
#631=CARTESIAN_POINT('Origin',(-18.5,0.,-2.5));
#632=CARTESIAN_POINT('',(-17.,0.,-5.));
#633=CARTESIAN_POINT('',(-20.,0.,0.));
#634=CARTESIAN_POINT('Origin',(-34.,0.,0.));
#635=CARTESIAN_POINT('',(-34.,0.,0.));
#636=CARTESIAN_POINT('',(-34.,0.,-5.));
#637=CARTESIAN_POINT('',(-34.,0.,0.));
#638=CARTESIAN_POINT('',(-34.,0.,-5.));
#639=CARTESIAN_POINT('',(-34.,0.,0.));
#640=CARTESIAN_POINT('Origin',(-37.,0.,0.));
#641=CARTESIAN_POINT('',(-37.,0.,0.));
#642=CARTESIAN_POINT('',(-37.,0.,0.));
#643=CARTESIAN_POINT('',(-37.,0.,0.));
#644=CARTESIAN_POINT('Origin',(-37.,0.,-5.));
#645=CARTESIAN_POINT('',(-37.,0.,-5.));
#646=CARTESIAN_POINT('',(-37.,0.,-5.));
#647=CARTESIAN_POINT('',(-37.,0.,-5.));
#648=CARTESIAN_POINT('Origin',(-34.,0.,-5.));
#649=CARTESIAN_POINT('',(-34.,0.,-5.));
#650=CARTESIAN_POINT('Origin',(-35.5,0.,-2.5));
#651=UNCERTAINTY_MEASURE_WITH_UNIT(LENGTH_MEASURE(0.01),#655,
'DISTANCE_ACCURACY_VALUE',
'Maximum model space distance between geometric entities at asserted c
onnectivities');
#652=UNCERTAINTY_MEASURE_WITH_UNIT(LENGTH_MEASURE(0.01),#655,
'DISTANCE_ACCURACY_VALUE',
'Maximum model space distance between geometric entities at asserted c
onnectivities');
#653=(
GEOMETRIC_REPRESENTATION_CONTEXT(3)
GLOBAL_UNCERTAINTY_ASSIGNED_CONTEXT((#651))
GLOBAL_UNIT_ASSIGNED_CONTEXT((#655,#657,#658))
REPRESENTATION_CONTEXT('','3D')
);
#654=(
GEOMETRIC_REPRESENTATION_CONTEXT(3)
GLOBAL_UNCERTAINTY_ASSIGNED_CONTEXT((#652))
GLOBAL_UNIT_ASSIGNED_CONTEXT((#655,#657,#658))
REPRESENTATION_CONTEXT('','3D')
);
#655=(
LENGTH_UNIT()
NAMED_UNIT(*)
SI_UNIT(.MILLI.,.METRE.)
);
#656=(
LENGTH_UNIT()
NAMED_UNIT(*)
SI_UNIT(.CENTI.,.METRE.)
);
#657=(
NAMED_UNIT(*)
PLANE_ANGLE_UNIT()
SI_UNIT($,.RADIAN.)
);
#658=(
NAMED_UNIT(*)
SI_UNIT($,.STERADIAN.)
SOLID_ANGLE_UNIT()
);
#659=SHAPE_DEFINITION_REPRESENTATION(#660,#661);
#660=PRODUCT_DEFINITION_SHAPE('',$,#663);
#661=SHAPE_REPRESENTATION('',(#423),#653);
#662=PRODUCT_DEFINITION_CONTEXT('part definition',#667,'design');
#663=PRODUCT_DEFINITION('Bus_copper_top','Bus_copper_top',#664,#662);
#664=PRODUCT_DEFINITION_FORMATION('',$,#669);
#665=PRODUCT_RELATED_PRODUCT_CATEGORY('Bus_copper_top','Bus_copper_top',
(#669));
#666=APPLICATION_PROTOCOL_DEFINITION('international standard',
'automotive_design',2009,#667);
#667=APPLICATION_CONTEXT(
'Core Data for Automotive Mechanical Design Process');
#668=PRODUCT_CONTEXT('part definition',#667,'mechanical');
#669=PRODUCT('Bus_copper_top','Bus_copper_top',$,(#668));
#670=PRESENTATION_STYLE_ASSIGNMENT((#671));
#671=SURFACE_STYLE_USAGE(.BOTH.,#674);
#672=SURFACE_STYLE_RENDERING_WITH_PROPERTIES($,#678,(#673));
#673=SURFACE_STYLE_TRANSPARENT(0.);
#674=SURFACE_SIDE_STYLE('',(#675,#672));
#675=SURFACE_STYLE_FILL_AREA(#676);
#676=FILL_AREA_STYLE('',(#677));
#677=FILL_AREA_STYLE_COLOUR('',#678);
#678=COLOUR_RGB('',0.737254901960784,0.313725490196078,0.184313725490196);
ENDSEC;
END-ISO-10303-21;
