ISO-10303-21;
HEADER;
/* Generated by software containing ST-Developer
 * from STEP Tools, Inc. (www.steptools.com) 
 */

FILE_DESCRIPTION(
/* description */ (''),
/* implementation_level */ '2;1');

FILE_NAME(
/* name */ 'Bush_phase_mono.stp',
/* time_stamp */ '2026-01-22T14:13:19+03:00',
/* author */ ('EV-TECH'),
/* organization */ (''),
/* preprocessor_version */ 'ST-DEVELOPER v20.1',
/* originating_system */ 'Autodesk Inventor 2026',
/* authorisation */ '');

FILE_SCHEMA (('AUTOMOTIVE_DESIGN { 1 0 10303 214 3 1 1 }'));
ENDSEC;

DATA;
#10=MECHANICAL_DESIGN_GEOMETRIC_PRESENTATION_REPRESENTATION('',(#16),#507);
#11=GEOMETRICALLY_BOUNDED_WIREFRAME_SHAPE_REPRESENTATION('',(#12),#506);
#12=GEOMETRIC_CURVE_SET('\X2\042D0441043A04380437\X0\1',(#503));
#13=SHAPE_REPRESENTATION_RELATIONSHIP('SRR','None',#514,#15);
#14=SHAPE_REPRESENTATION_RELATIONSHIP('SRR','None',#514,#11);
#15=ADVANCED_BREP_SHAPE_REPRESENTATION('',(#17),#506);
#16=STYLED_ITEM('',(#523),#17);
#17=MANIFOLD_SOLID_BREP('\X2\04220432043504400434043E0435\X0\ \X2\04420435043B043E\X0\1',
#293);
#18=FACE_BOUND('',#49,.T.);
#19=FACE_BOUND('',#61,.T.);
#20=PLANE('',#322);
#21=PLANE('',#323);
#22=PLANE('',#329);
#23=PLANE('',#332);
#24=PLANE('',#335);
#25=PLANE('',#336);
#26=PLANE('',#337);
#27=PLANE('',#338);
#28=PLANE('',#339);
#29=PLANE('',#340);
#30=FACE_OUTER_BOUND('',#45,.T.);
#31=FACE_OUTER_BOUND('',#46,.T.);
#32=FACE_OUTER_BOUND('',#47,.T.);
#33=FACE_OUTER_BOUND('',#48,.T.);
#34=FACE_OUTER_BOUND('',#50,.T.);
#35=FACE_OUTER_BOUND('',#51,.T.);
#36=FACE_OUTER_BOUND('',#52,.T.);
#37=FACE_OUTER_BOUND('',#53,.T.);
#38=FACE_OUTER_BOUND('',#54,.T.);
#39=FACE_OUTER_BOUND('',#55,.T.);
#40=FACE_OUTER_BOUND('',#56,.T.);
#41=FACE_OUTER_BOUND('',#57,.T.);
#42=FACE_OUTER_BOUND('',#58,.T.);
#43=FACE_OUTER_BOUND('',#59,.T.);
#44=FACE_OUTER_BOUND('',#60,.T.);
#45=EDGE_LOOP('',(#195,#196,#197,#198));
#46=EDGE_LOOP('',(#199,#200,#201,#202));
#47=EDGE_LOOP('',(#203,#204,#205,#206));
#48=EDGE_LOOP('',(#207,#208,#209,#210,#211,#212,#213,#214,#215,#216,#217,
#218));
#49=EDGE_LOOP('',(#219));
#50=EDGE_LOOP('',(#220,#221,#222,#223));
#51=EDGE_LOOP('',(#224,#225,#226,#227));
#52=EDGE_LOOP('',(#228,#229,#230,#231));
#53=EDGE_LOOP('',(#232,#233,#234,#235));
#54=EDGE_LOOP('',(#236,#237,#238,#239));
#55=EDGE_LOOP('',(#240,#241,#242,#243));
#56=EDGE_LOOP('',(#244,#245,#246,#247));
#57=EDGE_LOOP('',(#248,#249,#250,#251));
#58=EDGE_LOOP('',(#252,#253,#254,#255));
#59=EDGE_LOOP('',(#256,#257,#258,#259));
#60=EDGE_LOOP('',(#260,#261,#262,#263,#264,#265,#266,#267,#268,#269,#270,
#271));
#61=EDGE_LOOP('',(#272));
#62=LINE('',#427,#91);
#63=LINE('',#434,#92);
#64=LINE('',#437,#93);
#65=LINE('',#440,#94);
#66=LINE('',#442,#95);
#67=LINE('',#443,#96);
#68=LINE('',#446,#97);
#69=LINE('',#448,#98);
#70=LINE('',#450,#99);
#71=LINE('',#452,#100);
#72=LINE('',#454,#101);
#73=LINE('',#458,#102);
#74=LINE('',#462,#103);
#75=LINE('',#468,#104);
#76=LINE('',#469,#105);
#77=LINE('',#472,#106);
#78=LINE('',#473,#107);
#79=LINE('',#477,#108);
#80=LINE('',#480,#109);
#81=LINE('',#481,#110);
#82=LINE('',#485,#111);
#83=LINE('',#488,#112);
#84=LINE('',#489,#113);
#85=LINE('',#492,#114);
#86=LINE('',#493,#115);
#87=LINE('',#496,#116);
#88=LINE('',#497,#117);
#89=LINE('',#499,#118);
#90=LINE('',#501,#119);
#91=VECTOR('',#347,2.5);
#92=VECTOR('',#354,10.);
#93=VECTOR('',#357,10.);
#94=VECTOR('',#360,10.);
#95=VECTOR('',#361,10.);
#96=VECTOR('',#362,10.);
#97=VECTOR('',#365,10.);
#98=VECTOR('',#366,10.);
#99=VECTOR('',#367,10.);
#100=VECTOR('',#368,10.);
#101=VECTOR('',#369,10.);
#102=VECTOR('',#372,10.);
#103=VECTOR('',#375,10.);
#104=VECTOR('',#382,10.);
#105=VECTOR('',#383,10.);
#106=VECTOR('',#386,10.);
#107=VECTOR('',#387,10.);
#108=VECTOR('',#392,10.);
#109=VECTOR('',#395,10.);
#110=VECTOR('',#396,10.);
#111=VECTOR('',#401,10.);
#112=VECTOR('',#404,10.);
#113=VECTOR('',#405,10.);
#114=VECTOR('',#408,10.);
#115=VECTOR('',#409,10.);
#116=VECTOR('',#412,10.);
#117=VECTOR('',#413,10.);
#118=VECTOR('',#416,10.);
#119=VECTOR('',#419,10.);
#120=CIRCLE('',#317,2.5);
#121=CIRCLE('',#318,2.5);
#122=CIRCLE('',#320,2.);
#123=CIRCLE('',#321,2.);
#124=CIRCLE('',#324,2.);
#125=CIRCLE('',#325,2.);
#126=CIRCLE('',#326,2.);
#127=CIRCLE('',#328,2.);
#128=CIRCLE('',#331,2.);
#129=CIRCLE('',#334,2.);
#130=VERTEX_POINT('',#424);
#131=VERTEX_POINT('',#426);
#132=VERTEX_POINT('',#430);
#133=VERTEX_POINT('',#431);
#134=VERTEX_POINT('',#433);
#135=VERTEX_POINT('',#435);
#136=VERTEX_POINT('',#439);
#137=VERTEX_POINT('',#441);
#138=VERTEX_POINT('',#445);
#139=VERTEX_POINT('',#447);
#140=VERTEX_POINT('',#449);
#141=VERTEX_POINT('',#451);
#142=VERTEX_POINT('',#453);
#143=VERTEX_POINT('',#455);
#144=VERTEX_POINT('',#457);
#145=VERTEX_POINT('',#459);
#146=VERTEX_POINT('',#461);
#147=VERTEX_POINT('',#465);
#148=VERTEX_POINT('',#466);
#149=VERTEX_POINT('',#471);
#150=VERTEX_POINT('',#475);
#151=VERTEX_POINT('',#479);
#152=VERTEX_POINT('',#483);
#153=VERTEX_POINT('',#487);
#154=VERTEX_POINT('',#491);
#155=VERTEX_POINT('',#495);
#156=EDGE_CURVE('',#130,#130,#120,.T.);
#157=EDGE_CURVE('',#130,#131,#62,.T.);
#158=EDGE_CURVE('',#131,#131,#121,.T.);
#159=EDGE_CURVE('',#132,#133,#122,.T.);
#160=EDGE_CURVE('',#133,#134,#63,.T.);
#161=EDGE_CURVE('',#134,#135,#123,.T.);
#162=EDGE_CURVE('',#135,#132,#64,.T.);
#163=EDGE_CURVE('',#135,#136,#65,.T.);
#164=EDGE_CURVE('',#137,#136,#66,.T.);
#165=EDGE_CURVE('',#132,#137,#67,.T.);
#166=EDGE_CURVE('',#138,#134,#68,.T.);
#167=EDGE_CURVE('',#139,#138,#69,.T.);
#168=EDGE_CURVE('',#140,#139,#70,.T.);
#169=EDGE_CURVE('',#141,#140,#71,.T.);
#170=EDGE_CURVE('',#142,#141,#72,.T.);
#171=EDGE_CURVE('',#143,#142,#124,.T.);
#172=EDGE_CURVE('',#144,#143,#73,.T.);
#173=EDGE_CURVE('',#145,#144,#125,.T.);
#174=EDGE_CURVE('',#146,#145,#74,.T.);
#175=EDGE_CURVE('',#136,#146,#126,.T.);
#176=EDGE_CURVE('',#147,#148,#127,.T.);
#177=EDGE_CURVE('',#148,#143,#75,.T.);
#178=EDGE_CURVE('',#142,#147,#76,.T.);
#179=EDGE_CURVE('',#141,#149,#77,.T.);
#180=EDGE_CURVE('',#147,#149,#78,.T.);
#181=EDGE_CURVE('',#150,#137,#128,.T.);
#182=EDGE_CURVE('',#146,#150,#79,.T.);
#183=EDGE_CURVE('',#151,#145,#80,.T.);
#184=EDGE_CURVE('',#150,#151,#81,.T.);
#185=EDGE_CURVE('',#152,#151,#129,.T.);
#186=EDGE_CURVE('',#144,#152,#82,.T.);
#187=EDGE_CURVE('',#153,#133,#83,.T.);
#188=EDGE_CURVE('',#138,#153,#84,.T.);
#189=EDGE_CURVE('',#154,#153,#85,.T.);
#190=EDGE_CURVE('',#139,#154,#86,.T.);
#191=EDGE_CURVE('',#155,#154,#87,.T.);
#192=EDGE_CURVE('',#140,#155,#88,.T.);
#193=EDGE_CURVE('',#149,#155,#89,.T.);
#194=EDGE_CURVE('',#152,#148,#90,.T.);
#195=ORIENTED_EDGE('',*,*,#156,.F.);
#196=ORIENTED_EDGE('',*,*,#157,.T.);
#197=ORIENTED_EDGE('',*,*,#158,.F.);
#198=ORIENTED_EDGE('',*,*,#157,.F.);
#199=ORIENTED_EDGE('',*,*,#159,.T.);
#200=ORIENTED_EDGE('',*,*,#160,.T.);
#201=ORIENTED_EDGE('',*,*,#161,.T.);
#202=ORIENTED_EDGE('',*,*,#162,.T.);
#203=ORIENTED_EDGE('',*,*,#162,.F.);
#204=ORIENTED_EDGE('',*,*,#163,.T.);
#205=ORIENTED_EDGE('',*,*,#164,.F.);
#206=ORIENTED_EDGE('',*,*,#165,.F.);
#207=ORIENTED_EDGE('',*,*,#161,.F.);
#208=ORIENTED_EDGE('',*,*,#166,.F.);
#209=ORIENTED_EDGE('',*,*,#167,.F.);
#210=ORIENTED_EDGE('',*,*,#168,.F.);
#211=ORIENTED_EDGE('',*,*,#169,.F.);
#212=ORIENTED_EDGE('',*,*,#170,.F.);
#213=ORIENTED_EDGE('',*,*,#171,.F.);
#214=ORIENTED_EDGE('',*,*,#172,.F.);
#215=ORIENTED_EDGE('',*,*,#173,.F.);
#216=ORIENTED_EDGE('',*,*,#174,.F.);
#217=ORIENTED_EDGE('',*,*,#175,.F.);
#218=ORIENTED_EDGE('',*,*,#163,.F.);
#219=ORIENTED_EDGE('',*,*,#156,.T.);
#220=ORIENTED_EDGE('',*,*,#176,.T.);
#221=ORIENTED_EDGE('',*,*,#177,.T.);
#222=ORIENTED_EDGE('',*,*,#171,.T.);
#223=ORIENTED_EDGE('',*,*,#178,.T.);
#224=ORIENTED_EDGE('',*,*,#178,.F.);
#225=ORIENTED_EDGE('',*,*,#170,.T.);
#226=ORIENTED_EDGE('',*,*,#179,.T.);
#227=ORIENTED_EDGE('',*,*,#180,.F.);
#228=ORIENTED_EDGE('',*,*,#181,.T.);
#229=ORIENTED_EDGE('',*,*,#164,.T.);
#230=ORIENTED_EDGE('',*,*,#175,.T.);
#231=ORIENTED_EDGE('',*,*,#182,.T.);
#232=ORIENTED_EDGE('',*,*,#182,.F.);
#233=ORIENTED_EDGE('',*,*,#174,.T.);
#234=ORIENTED_EDGE('',*,*,#183,.F.);
#235=ORIENTED_EDGE('',*,*,#184,.F.);
#236=ORIENTED_EDGE('',*,*,#185,.T.);
#237=ORIENTED_EDGE('',*,*,#183,.T.);
#238=ORIENTED_EDGE('',*,*,#173,.T.);
#239=ORIENTED_EDGE('',*,*,#186,.T.);
#240=ORIENTED_EDGE('',*,*,#160,.F.);
#241=ORIENTED_EDGE('',*,*,#187,.F.);
#242=ORIENTED_EDGE('',*,*,#188,.F.);
#243=ORIENTED_EDGE('',*,*,#166,.T.);
#244=ORIENTED_EDGE('',*,*,#167,.T.);
#245=ORIENTED_EDGE('',*,*,#188,.T.);
#246=ORIENTED_EDGE('',*,*,#189,.F.);
#247=ORIENTED_EDGE('',*,*,#190,.F.);
#248=ORIENTED_EDGE('',*,*,#168,.T.);
#249=ORIENTED_EDGE('',*,*,#190,.T.);
#250=ORIENTED_EDGE('',*,*,#191,.F.);
#251=ORIENTED_EDGE('',*,*,#192,.F.);
#252=ORIENTED_EDGE('',*,*,#169,.T.);
#253=ORIENTED_EDGE('',*,*,#192,.T.);
#254=ORIENTED_EDGE('',*,*,#193,.F.);
#255=ORIENTED_EDGE('',*,*,#179,.F.);
#256=ORIENTED_EDGE('',*,*,#177,.F.);
#257=ORIENTED_EDGE('',*,*,#194,.F.);
#258=ORIENTED_EDGE('',*,*,#186,.F.);
#259=ORIENTED_EDGE('',*,*,#172,.T.);
#260=ORIENTED_EDGE('',*,*,#159,.F.);
#261=ORIENTED_EDGE('',*,*,#165,.T.);
#262=ORIENTED_EDGE('',*,*,#181,.F.);
#263=ORIENTED_EDGE('',*,*,#184,.T.);
#264=ORIENTED_EDGE('',*,*,#185,.F.);
#265=ORIENTED_EDGE('',*,*,#194,.T.);
#266=ORIENTED_EDGE('',*,*,#176,.F.);
#267=ORIENTED_EDGE('',*,*,#180,.T.);
#268=ORIENTED_EDGE('',*,*,#193,.T.);
#269=ORIENTED_EDGE('',*,*,#191,.T.);
#270=ORIENTED_EDGE('',*,*,#189,.T.);
#271=ORIENTED_EDGE('',*,*,#187,.T.);
#272=ORIENTED_EDGE('',*,*,#158,.T.);
#273=CYLINDRICAL_SURFACE('',#316,2.5);
#274=CYLINDRICAL_SURFACE('',#319,2.);
#275=CYLINDRICAL_SURFACE('',#327,2.);
#276=CYLINDRICAL_SURFACE('',#330,2.);
#277=CYLINDRICAL_SURFACE('',#333,2.);
#278=ADVANCED_FACE('',(#30),#273,.F.);
#279=ADVANCED_FACE('',(#31),#274,.T.);
#280=ADVANCED_FACE('',(#32),#20,.T.);
#281=ADVANCED_FACE('',(#33,#18),#21,.F.);
#282=ADVANCED_FACE('',(#34),#275,.T.);
#283=ADVANCED_FACE('',(#35),#22,.T.);
#284=ADVANCED_FACE('',(#36),#276,.T.);
#285=ADVANCED_FACE('',(#37),#23,.T.);
#286=ADVANCED_FACE('',(#38),#277,.T.);
#287=ADVANCED_FACE('',(#39),#24,.T.);
#288=ADVANCED_FACE('',(#40),#25,.T.);
#289=ADVANCED_FACE('',(#41),#26,.T.);
#290=ADVANCED_FACE('',(#42),#27,.T.);
#291=ADVANCED_FACE('',(#43),#28,.T.);
#292=ADVANCED_FACE('',(#44,#19),#29,.T.);
#293=CLOSED_SHELL('',(#278,#279,#280,#281,#282,#283,#284,#285,#286,#287,
#288,#289,#290,#291,#292));
#294=DERIVED_UNIT_ELEMENT(#297,1.);
#295=DERIVED_UNIT_ELEMENT(#509,-3.);
#296=DIMENSIONAL_EXPONENTS(0.,1.,0.,0.,0.,0.,0.);
#297=(
CONVERSION_BASED_UNIT('gram',#299)
MASS_UNIT()
NAMED_UNIT(#296)
);
#298=(
MASS_UNIT()
NAMED_UNIT(*)
SI_UNIT(.KILO.,.GRAM.)
);
#299=MASS_MEASURE_WITH_UNIT(MASS_MEASURE(0.001),#298);
#300=DERIVED_UNIT((#294,#295));
#301=MEASURE_REPRESENTATION_ITEM('density measure',
POSITIVE_RATIO_MEASURE(8.94),#300);
#302=PROPERTY_DEFINITION_REPRESENTATION(#307,#304);
#303=PROPERTY_DEFINITION_REPRESENTATION(#308,#305);
#304=REPRESENTATION('material name',(#306),#506);
#305=REPRESENTATION('density',(#301),#506);
#306=DESCRIPTIVE_REPRESENTATION_ITEM('\X2\041C04350434044C\X0\',
'\X2\041C04350434044C\X0\');
#307=PROPERTY_DEFINITION('material property','material name',#516);
#308=PROPERTY_DEFINITION('material property','density of part',#516);
#309=DATE_TIME_ROLE('creation_date');
#310=APPLIED_DATE_AND_TIME_ASSIGNMENT(#311,#309,(#516));
#311=DATE_AND_TIME(#312,#313);
#312=CALENDAR_DATE(2026,22,1);
#313=LOCAL_TIME(0,0,0.,#314);
#314=COORDINATED_UNIVERSAL_TIME_OFFSET(0,0,.BEHIND.);
#315=AXIS2_PLACEMENT_3D('',#422,#341,#342);
#316=AXIS2_PLACEMENT_3D('',#423,#343,#344);
#317=AXIS2_PLACEMENT_3D('',#425,#345,#346);
#318=AXIS2_PLACEMENT_3D('',#428,#348,#349);
#319=AXIS2_PLACEMENT_3D('',#429,#350,#351);
#320=AXIS2_PLACEMENT_3D('',#432,#352,#353);
#321=AXIS2_PLACEMENT_3D('',#436,#355,#356);
#322=AXIS2_PLACEMENT_3D('',#438,#358,#359);
#323=AXIS2_PLACEMENT_3D('',#444,#363,#364);
#324=AXIS2_PLACEMENT_3D('',#456,#370,#371);
#325=AXIS2_PLACEMENT_3D('',#460,#373,#374);
#326=AXIS2_PLACEMENT_3D('',#463,#376,#377);
#327=AXIS2_PLACEMENT_3D('',#464,#378,#379);
#328=AXIS2_PLACEMENT_3D('',#467,#380,#381);
#329=AXIS2_PLACEMENT_3D('',#470,#384,#385);
#330=AXIS2_PLACEMENT_3D('',#474,#388,#389);
#331=AXIS2_PLACEMENT_3D('',#476,#390,#391);
#332=AXIS2_PLACEMENT_3D('',#478,#393,#394);
#333=AXIS2_PLACEMENT_3D('',#482,#397,#398);
#334=AXIS2_PLACEMENT_3D('',#484,#399,#400);
#335=AXIS2_PLACEMENT_3D('',#486,#402,#403);
#336=AXIS2_PLACEMENT_3D('',#490,#406,#407);
#337=AXIS2_PLACEMENT_3D('',#494,#410,#411);
#338=AXIS2_PLACEMENT_3D('',#498,#414,#415);
#339=AXIS2_PLACEMENT_3D('',#500,#417,#418);
#340=AXIS2_PLACEMENT_3D('',#502,#420,#421);
#341=DIRECTION('axis',(0.,0.,1.));
#342=DIRECTION('refdir',(1.,0.,0.));
#343=DIRECTION('center_axis',(0.,0.,1.));
#344=DIRECTION('ref_axis',(-1.,0.,0.));
#345=DIRECTION('center_axis',(0.,0.,1.));
#346=DIRECTION('ref_axis',(-1.,0.,0.));
#347=DIRECTION('',(0.,0.,1.));
#348=DIRECTION('center_axis',(0.,0.,-1.));
#349=DIRECTION('ref_axis',(-1.,0.,0.));
#350=DIRECTION('center_axis',(0.,0.,1.));
#351=DIRECTION('ref_axis',(0.707106781186547,0.707106781186548,0.));
#352=DIRECTION('center_axis',(0.,0.,-1.));
#353=DIRECTION('ref_axis',(0.707106781186547,0.707106781186548,0.));
#354=DIRECTION('',(0.,0.,-1.));
#355=DIRECTION('center_axis',(0.,0.,1.));
#356=DIRECTION('ref_axis',(0.707106781186547,0.707106781186548,0.));
#357=DIRECTION('',(0.,0.,1.));
#358=DIRECTION('center_axis',(-3.33066907387547E-16,1.,0.));
#359=DIRECTION('ref_axis',(-1.,-3.33066907387547E-16,0.));
#360=DIRECTION('',(-1.,-3.33066907387547E-16,0.));
#361=DIRECTION('',(0.,0.,-1.));
#362=DIRECTION('',(-1.,-3.33066907387547E-16,0.));
#363=DIRECTION('center_axis',(0.,0.,1.));
#364=DIRECTION('ref_axis',(1.,0.,0.));
#365=DIRECTION('',(0.,1.,0.));
#366=DIRECTION('',(1.,2.63677968348475E-16,0.));
#367=DIRECTION('',(1.38777878078145E-15,1.,0.));
#368=DIRECTION('',(-1.,0.,0.));
#369=DIRECTION('',(0.,1.,0.));
#370=DIRECTION('center_axis',(0.,0.,1.));
#371=DIRECTION('ref_axis',(0.707106781186549,-0.707106781186546,0.));
#372=DIRECTION('',(1.,6.16297582203915E-33,0.));
#373=DIRECTION('center_axis',(0.,0.,1.));
#374=DIRECTION('ref_axis',(-0.707106781186547,-0.707106781186548,0.));
#375=DIRECTION('',(4.91862580914217E-16,-1.,0.));
#376=DIRECTION('center_axis',(0.,0.,1.));
#377=DIRECTION('ref_axis',(-0.707106781186548,0.707106781186547,0.));
#378=DIRECTION('center_axis',(0.,0.,1.));
#379=DIRECTION('ref_axis',(0.707106781186549,-0.707106781186546,0.));
#380=DIRECTION('center_axis',(0.,0.,-1.));
#381=DIRECTION('ref_axis',(0.707106781186549,-0.707106781186546,0.));
#382=DIRECTION('',(0.,0.,-1.));
#383=DIRECTION('',(0.,0.,1.));
#384=DIRECTION('center_axis',(1.,0.,0.));
#385=DIRECTION('ref_axis',(0.,1.,0.));
#386=DIRECTION('',(0.,0.,1.));
#387=DIRECTION('',(0.,1.,0.));
#388=DIRECTION('center_axis',(0.,0.,1.));
#389=DIRECTION('ref_axis',(-0.707106781186548,0.707106781186547,0.));
#390=DIRECTION('center_axis',(0.,0.,-1.));
#391=DIRECTION('ref_axis',(-0.707106781186548,0.707106781186547,0.));
#392=DIRECTION('',(0.,0.,1.));
#393=DIRECTION('center_axis',(-1.,-4.91862580914217E-16,0.));
#394=DIRECTION('ref_axis',(4.91862580914217E-16,-1.,0.));
#395=DIRECTION('',(0.,0.,-1.));
#396=DIRECTION('',(4.91862580914217E-16,-1.,0.));
#397=DIRECTION('center_axis',(0.,0.,1.));
#398=DIRECTION('ref_axis',(-0.707106781186547,-0.707106781186548,0.));
#399=DIRECTION('center_axis',(0.,0.,-1.));
#400=DIRECTION('ref_axis',(-0.707106781186547,-0.707106781186548,0.));
#401=DIRECTION('',(0.,0.,1.));
#402=DIRECTION('center_axis',(1.,0.,0.));
#403=DIRECTION('ref_axis',(0.,1.,0.));
#404=DIRECTION('',(0.,1.,0.));
#405=DIRECTION('',(0.,0.,1.));
#406=DIRECTION('center_axis',(2.63677968348475E-16,-1.,0.));
#407=DIRECTION('ref_axis',(1.,2.63677968348475E-16,0.));
#408=DIRECTION('',(1.,2.63677968348475E-16,0.));
#409=DIRECTION('',(0.,0.,1.));
#410=DIRECTION('center_axis',(1.,-1.38777878078145E-15,0.));
#411=DIRECTION('ref_axis',(1.38777878078145E-15,1.,0.));
#412=DIRECTION('',(1.38777878078145E-15,1.,0.));
#413=DIRECTION('',(0.,0.,1.));
#414=DIRECTION('center_axis',(0.,1.,0.));
#415=DIRECTION('ref_axis',(-1.,0.,0.));
#416=DIRECTION('',(-1.,0.,0.));
#417=DIRECTION('center_axis',(6.16297582203915E-33,-1.,0.));
#418=DIRECTION('ref_axis',(1.,6.16297582203915E-33,0.));
#419=DIRECTION('',(1.,6.16297582203915E-33,0.));
#420=DIRECTION('center_axis',(0.,0.,1.));
#421=DIRECTION('ref_axis',(1.,0.,0.));
#422=CARTESIAN_POINT('',(0.,0.,0.));
#423=CARTESIAN_POINT('Origin',(6.,5.75000000000001,0.));
#424=CARTESIAN_POINT('',(8.5,5.75000000000001,0.));
#425=CARTESIAN_POINT('Origin',(6.,5.75000000000001,0.));
#426=CARTESIAN_POINT('',(8.5,5.75000000000001,5.));
#427=CARTESIAN_POINT('',(8.5,5.75000000000001,0.));
#428=CARTESIAN_POINT('Origin',(6.,5.75000000000001,5.));
#429=CARTESIAN_POINT('Origin',(78.,9.60000000000002,0.));
#430=CARTESIAN_POINT('',(78.,11.6,5.));
#431=CARTESIAN_POINT('',(80.,9.60000000000002,5.));
#432=CARTESIAN_POINT('Origin',(78.,9.60000000000002,5.));
#433=CARTESIAN_POINT('',(80.,9.60000000000002,0.));
#434=CARTESIAN_POINT('',(80.,9.60000000000002,0.));
#435=CARTESIAN_POINT('',(78.,11.6,0.));
#436=CARTESIAN_POINT('Origin',(78.,9.60000000000002,0.));
#437=CARTESIAN_POINT('',(78.,11.6,0.));
#438=CARTESIAN_POINT('Origin',(80.,11.6,0.));
#439=CARTESIAN_POINT('',(1.99999999999999,11.6,0.));
#440=CARTESIAN_POINT('',(80.,11.6,0.));
#441=CARTESIAN_POINT('',(1.99999999999999,11.6,5.));
#442=CARTESIAN_POINT('',(2.,11.6,0.));
#443=CARTESIAN_POINT('',(80.,11.6,5.));
#444=CARTESIAN_POINT('Origin',(40.,5.80000000000001,0.));
#445=CARTESIAN_POINT('',(80.,6.60000000000002,0.));
#446=CARTESIAN_POINT('',(80.,6.60000000000002,0.));
#447=CARTESIAN_POINT('',(16.,6.60000000000001,0.));
#448=CARTESIAN_POINT('',(-1.22464679914735E-15,6.6,0.));
#449=CARTESIAN_POINT('',(16.,5.00000000000001,0.));
#450=CARTESIAN_POINT('',(16.,5.00000000000001,0.));
#451=CARTESIAN_POINT('',(80.,5.,0.));
#452=CARTESIAN_POINT('',(80.,5.,0.));
#453=CARTESIAN_POINT('',(80.,2.,0.));
#454=CARTESIAN_POINT('',(80.,4.93038065763132E-31,0.));
#455=CARTESIAN_POINT('',(78.,4.80712114119054E-31,0.));
#456=CARTESIAN_POINT('Origin',(78.,2.,0.));
#457=CARTESIAN_POINT('',(2.,1.23259516440783E-32,0.));
#458=CARTESIAN_POINT('',(0.,0.,0.));
#459=CARTESIAN_POINT('',(1.03792107305805E-15,2.,0.));
#460=CARTESIAN_POINT('Origin',(2.,2.,0.));
#461=CARTESIAN_POINT('',(-2.70023454189E-15,9.59999999999999,0.));
#462=CARTESIAN_POINT('',(-3.68395970371843E-15,11.6,0.));
#463=CARTESIAN_POINT('Origin',(2.,9.6,0.));
#464=CARTESIAN_POINT('Origin',(78.,2.,0.));
#465=CARTESIAN_POINT('',(80.,2.,5.));
#466=CARTESIAN_POINT('',(78.,4.80712114119054E-31,5.));
#467=CARTESIAN_POINT('Origin',(78.,2.,5.));
#468=CARTESIAN_POINT('',(78.,0.,0.));
#469=CARTESIAN_POINT('',(80.,2.,0.));
#470=CARTESIAN_POINT('Origin',(80.,4.93038065763132E-31,0.));
#471=CARTESIAN_POINT('',(80.,5.,5.));
#472=CARTESIAN_POINT('',(80.,5.,0.));
#473=CARTESIAN_POINT('',(80.,4.93038065763132E-31,5.));
#474=CARTESIAN_POINT('Origin',(2.,9.6,0.));
#475=CARTESIAN_POINT('',(-2.70023454189E-15,9.59999999999999,5.));
#476=CARTESIAN_POINT('Origin',(2.,9.6,5.));
#477=CARTESIAN_POINT('',(-2.4980018054066E-15,9.59999999999999,0.));
#478=CARTESIAN_POINT('Origin',(-3.68395970371843E-15,11.6,0.));
#479=CARTESIAN_POINT('',(1.03792107305805E-15,2.,5.));
#480=CARTESIAN_POINT('',(1.11022302462516E-15,2.,0.));
#481=CARTESIAN_POINT('',(-3.68395970371843E-15,11.6,5.));
#482=CARTESIAN_POINT('Origin',(2.,2.,0.));
#483=CARTESIAN_POINT('',(2.,1.23259516440783E-32,5.));
#484=CARTESIAN_POINT('Origin',(2.,2.,5.));
#485=CARTESIAN_POINT('',(2.,0.,0.));
#486=CARTESIAN_POINT('Origin',(80.,6.60000000000002,0.));
#487=CARTESIAN_POINT('',(80.,6.60000000000002,5.));
#488=CARTESIAN_POINT('',(80.,6.60000000000002,5.));
#489=CARTESIAN_POINT('',(80.,6.60000000000002,0.));
#490=CARTESIAN_POINT('Origin',(16.,6.60000000000001,0.));
#491=CARTESIAN_POINT('',(16.,6.60000000000001,5.));
#492=CARTESIAN_POINT('',(-1.22464679914735E-15,6.6,5.));
#493=CARTESIAN_POINT('',(16.,6.60000000000001,0.));
#494=CARTESIAN_POINT('Origin',(16.,5.00000000000001,0.));
#495=CARTESIAN_POINT('',(16.,5.00000000000001,5.));
#496=CARTESIAN_POINT('',(16.,5.00000000000001,5.));
#497=CARTESIAN_POINT('',(16.,5.00000000000001,0.));
#498=CARTESIAN_POINT('Origin',(80.,5.,0.));
#499=CARTESIAN_POINT('',(80.,5.,5.));
#500=CARTESIAN_POINT('Origin',(0.,0.,0.));
#501=CARTESIAN_POINT('',(0.,0.,5.));
#502=CARTESIAN_POINT('Origin',(40.,5.80000000000001,5.));
#503=CARTESIAN_POINT('',(0.,0.,0.));
#504=UNCERTAINTY_MEASURE_WITH_UNIT(LENGTH_MEASURE(0.01),#508,
'DISTANCE_ACCURACY_VALUE',
'Maximum model space distance between geometric entities at asserted c
onnectivities');
#505=UNCERTAINTY_MEASURE_WITH_UNIT(LENGTH_MEASURE(0.01),#508,
'DISTANCE_ACCURACY_VALUE',
'Maximum model space distance between geometric entities at asserted c
onnectivities');
#506=(
GEOMETRIC_REPRESENTATION_CONTEXT(3)
GLOBAL_UNCERTAINTY_ASSIGNED_CONTEXT((#504))
GLOBAL_UNIT_ASSIGNED_CONTEXT((#508,#510,#511))
REPRESENTATION_CONTEXT('','3D')
);
#507=(
GEOMETRIC_REPRESENTATION_CONTEXT(3)
GLOBAL_UNCERTAINTY_ASSIGNED_CONTEXT((#505))
GLOBAL_UNIT_ASSIGNED_CONTEXT((#508,#510,#511))
REPRESENTATION_CONTEXT('','3D')
);
#508=(
LENGTH_UNIT()
NAMED_UNIT(*)
SI_UNIT(.MILLI.,.METRE.)
);
#509=(
LENGTH_UNIT()
NAMED_UNIT(*)
SI_UNIT(.CENTI.,.METRE.)
);
#510=(
NAMED_UNIT(*)
PLANE_ANGLE_UNIT()
SI_UNIT($,.RADIAN.)
);
#511=(
NAMED_UNIT(*)
SI_UNIT($,.STERADIAN.)
SOLID_ANGLE_UNIT()
);
#512=SHAPE_DEFINITION_REPRESENTATION(#513,#514);
#513=PRODUCT_DEFINITION_SHAPE('',$,#516);
#514=SHAPE_REPRESENTATION('',(#315),#506);
#515=PRODUCT_DEFINITION_CONTEXT('part definition',#520,'design');
#516=PRODUCT_DEFINITION('Bush_phase_mono','Bush_phase_mono',#517,#515);
#517=PRODUCT_DEFINITION_FORMATION('',$,#522);
#518=PRODUCT_RELATED_PRODUCT_CATEGORY('Bush_phase_mono',
'Bush_phase_mono',(#522));
#519=APPLICATION_PROTOCOL_DEFINITION('international standard',
'automotive_design',2009,#520);
#520=APPLICATION_CONTEXT(
'Core Data for Automotive Mechanical Design Process');
#521=PRODUCT_CONTEXT('part definition',#520,'mechanical');
#522=PRODUCT('Bush_phase_mono','Bush_phase_mono',$,(#521));
#523=PRESENTATION_STYLE_ASSIGNMENT((#525));
#524=PRESENTATION_STYLE_ASSIGNMENT((#526));
#525=SURFACE_STYLE_USAGE(.BOTH.,#529);
#526=SURFACE_STYLE_USAGE(.BOTH.,#530);
#527=SURFACE_STYLE_RENDERING_WITH_PROPERTIES($,#537,(#528));
#528=SURFACE_STYLE_TRANSPARENT(0.);
#529=SURFACE_SIDE_STYLE('',(#531,#527));
#530=SURFACE_SIDE_STYLE('',(#532));
#531=SURFACE_STYLE_FILL_AREA(#533);
#532=SURFACE_STYLE_FILL_AREA(#534);
#533=FILL_AREA_STYLE('',(#535));
#534=FILL_AREA_STYLE('',(#536));
#535=FILL_AREA_STYLE_COLOUR('',#537);
#536=FILL_AREA_STYLE_COLOUR('',#538);
#537=COLOUR_RGB('',0.737254901960784,0.313725490196078,0.184313725490196);
#538=COLOUR_RGB('',0.913725490196078,0.913725490196078,0.);
ENDSEC;
END-ISO-10303-21;
